<svg width="47" height="47" viewBox="0 0 47 47" fill="none" xmlns="http://www.w3.org/2000/svg">
<path d="M23.5 14.8831C23.7077 14.8832 23.907 14.8007 24.054 14.6537C24.2009 14.5068 24.2834 14.3075 24.2834 14.0997V7.83311C24.2834 7.40047 23.9327 7.0498 23.5001 7.0498C23.0675 7.0498 22.7168 7.40047 22.7168 7.83311V14.0998C22.7167 14.3075 22.7992 14.5068 22.9462 14.6538C23.093 14.8007 23.2923 14.8832 23.5 14.8831Z" fill="#F76041"/>
<path d="M45.4333 8.6167H43.8666V5.4833C43.8656 4.61848 43.1647 3.91762 42.2999 3.91661H31.1193C29.36 1.45847 26.5229 0 23.5 0C20.4771 0 17.64 1.45847 15.8807 3.9167H4.7C3.83518 3.91771 3.13431 4.61848 3.1333 5.48339V8.6167H1.5667C0.701787 8.61761 0.00100977 9.31848 0 10.1833V42.3C0.00100977 43.1648 0.701787 43.8657 1.5667 43.8667H18.5652C19.464 45.7791 21.3868 47 23.5 47C25.6132 47 27.536 45.7791 28.4348 43.8667H45.4333C46.2981 43.8657 46.999 43.1649 47 42.3V10.1833C46.999 9.31848 46.2982 8.61761 45.4333 8.6167ZM32.0342 5.4833H42.3V31.3333H28.2C26.7248 31.3331 25.3123 31.9294 24.2833 32.9866V18.7603C27.3369 18.5131 30.0771 16.7892 31.6216 14.1434C33.1662 11.4977 33.3202 8.26392 32.0342 5.4833ZM28.2 36.8167H42.3V39.1667H24.2833V36.8167C24.2859 34.6546 26.0379 32.9026 28.2 32.9H42.3V35.25H28.2C27.7674 35.25 27.4167 35.6008 27.4167 36.0333C27.4167 36.4659 27.7674 36.8167 28.2 36.8167ZM23.5 1.5667C27.8262 1.5667 31.3333 5.0738 31.3333 9.4C31.3333 13.7262 27.8262 17.2333 23.5 17.2333C19.1738 17.2333 15.6667 13.7262 15.6667 9.4C15.6717 5.07582 19.1758 1.57165 23.5 1.5667ZM4.7 5.4833H14.9658C13.6798 8.26392 13.8337 11.4976 15.3783 14.1434C16.9228 16.7892 19.663 18.5131 22.7166 18.7603V32.9866C21.6877 31.9294 20.2752 31.3331 18.7999 31.3333H4.7V5.4833ZM4.7 36.8167H18.8C19.2326 36.8167 19.5833 36.4659 19.5833 36.0334C19.5833 35.6008 19.2325 35.2501 18.8 35.2501H4.7V32.9001H18.8C20.9621 32.9027 22.7141 34.6547 22.7167 36.8168V39.1668H4.7V36.8167ZM45.4333 42.3H27.9262C27.9175 42.3 27.9105 42.3046 27.9018 42.3049C27.8464 42.3098 27.7916 42.3208 27.7385 42.3378C27.646 42.3461 27.5589 42.3852 27.4913 42.449C27.4034 42.4917 27.3324 42.5629 27.2901 42.651C27.2538 42.6984 27.2232 42.75 27.199 42.8046C27.1959 42.8126 27.1892 42.8178 27.1863 42.8259C26.6343 44.3885 25.1571 45.4333 23.4999 45.4333C21.8427 45.4333 20.3655 44.3885 19.8135 42.8259C19.8107 42.8177 19.804 42.8126 19.8009 42.8046C19.7771 42.7514 19.7473 42.701 19.7121 42.6545C19.6717 42.5683 19.6034 42.4982 19.5182 42.4556C19.48 42.4241 19.4388 42.3964 19.3953 42.3728C19.3544 42.3582 19.3122 42.3471 19.2694 42.3396C19.2136 42.3213 19.1559 42.3096 19.0973 42.3048C19.0889 42.3045 19.082 42.3 19.0736 42.3H1.5667V10.1833H3.13339V39.1666C3.1344 40.0314 3.83518 40.7323 4.70009 40.7333H42.3001C43.1649 40.7323 43.8658 40.0315 43.8668 39.1666V10.1833H45.4335V42.3H45.4333Z" fill="#F76041"/>
<path d="M31.3335 18.7998C31.3334 19.0075 31.4159 19.2068 31.5629 19.3538C31.7098 19.5007 31.9091 19.5832 32.1169 19.5832H39.9502C40.3828 19.5832 40.7335 19.2325 40.7335 18.7999C40.7335 18.3674 40.3828 18.0166 39.9502 18.0166H32.1169C31.9092 18.0165 31.7099 18.099 31.5629 18.246C31.416 18.3928 31.3335 18.5921 31.3335 18.7998Z" fill="#F76041"/>
<path d="M39.9502 21.9336H28.9835C28.5509 21.9336 28.2002 22.2843 28.2002 22.7169C28.2002 23.1495 28.5509 23.5002 28.9835 23.5002H39.9502C40.3828 23.5002 40.7335 23.1495 40.7335 22.7169C40.7335 22.2843 40.3828 21.9336 39.9502 21.9336Z" fill="#F76041"/>
<path d="M39.9502 25.8496H28.9835C28.5509 25.8496 28.2002 26.2003 28.2002 26.6329C28.2002 27.0656 28.5509 27.4162 28.9835 27.4162H39.9502C40.3828 27.4162 40.7335 27.0656 40.7335 26.6329C40.7335 26.2003 40.3828 25.8496 39.9502 25.8496Z" fill="#F76041"/>
<path d="M7.0499 19.5832H14.8832C15.3158 19.5832 15.6665 19.2325 15.6665 18.7999C15.6665 18.3674 15.3158 18.0166 14.8832 18.0166H7.0499C6.61727 18.0166 6.2666 18.3673 6.2666 18.7999C6.2666 19.2325 6.61727 19.5832 7.0499 19.5832Z" fill="#F76041"/>
<path d="M7.0499 23.5002H18.0166C18.4492 23.5002 18.7999 23.1495 18.7999 22.7169C18.7999 22.2843 18.4492 21.9336 18.0166 21.9336H7.0499C6.61727 21.9336 6.2666 22.2843 6.2666 22.7169C6.2666 23.1495 6.61727 23.5002 7.0499 23.5002Z" fill="#F76041"/>
<path d="M18.0166 25.8496H7.0499C6.61727 25.8496 6.2666 26.2003 6.2666 26.6329C6.2666 27.0656 6.61727 27.4162 7.0499 27.4162H18.0166C18.4492 27.4162 18.7999 27.0656 18.7999 26.6329C18.7999 26.2003 18.4491 25.8496 18.0166 25.8496Z" fill="#F76041"/>
<path d="M23.5 5.48379C23.7077 5.48388 23.907 5.40136 24.054 5.25439C24.2009 5.10751 24.2834 4.90822 24.2834 4.70039V3.91709C24.2834 3.48445 23.9327 3.13379 23.5001 3.13379C23.0675 3.13379 22.7168 3.48445 22.7168 3.91709V4.70049C22.7167 4.90822 22.7992 5.10751 22.9462 5.25448C23.093 5.40136 23.2923 5.48388 23.5 5.48379Z" fill="#F76041"/>
</svg>
