<svg width="19" height="23" viewBox="0 0 19 23" fill="none" xmlns="http://www.w3.org/2000/svg">
<path d="M15.9688 8.625H15.25V5.75C15.25 2.57887 12.6711 0 9.5 0C6.32888 0 3.75 2.57887 3.75 5.75V8.625H3.03125C1.84292 8.625 0.875 9.59196 0.875 10.7812V20.8438C0.875 22.033 1.84292 23 3.03125 23H15.9688C17.1571 23 18.125 22.033 18.125 20.8438V10.7812C18.125 9.59196 17.1571 8.625 15.9688 8.625ZM5.66667 5.75C5.66667 3.63592 7.38592 1.91667 9.5 1.91667C11.6141 1.91667 13.3333 3.63592 13.3333 5.75V8.625H5.66667V5.75ZM10.4583 16.0252V18.2083C10.4583 18.7373 10.03 19.1667 9.5 19.1667C8.97004 19.1667 8.54167 18.7373 8.54167 18.2083V16.0252C7.97146 15.6927 7.58333 15.0813 7.58333 14.375C7.58333 13.318 8.44296 12.4583 9.5 12.4583C10.557 12.4583 11.4167 13.318 11.4167 14.375C11.4167 15.0813 11.0285 15.6927 10.4583 16.0252Z" fill="#3448FE"/>
</svg>
