<svg width="50" height="50" viewBox="0 0 50 50" fill="none" xmlns="http://www.w3.org/2000/svg">
<path d="M39.0625 7.03125C39.9242 7.03125 40.625 7.73203 40.625 8.59375H42.1875C42.1875 7.14141 41.1875 5.92891 39.8438 5.57969V3.90625H38.2812V5.46875H35.9375V8.59375C35.9375 10.3172 37.3391 11.7188 39.0625 11.7188C39.9242 11.7188 40.625 12.4195 40.625 13.2812V14.8438H39.0625C38.2008 14.8438 37.5 14.143 37.5 13.2812H35.9375C35.9375 14.7336 36.9375 15.9461 38.2812 16.2953V17.9688H39.8438V16.4062H42.1875V13.2812C42.1875 11.5578 40.7859 10.1562 39.0625 10.1562C38.2008 10.1562 37.5 9.45547 37.5 8.59375V7.03125H39.0625Z" fill="#F76041"/>
<path d="M9.375 26.5625V25.7812H0.78125V26.5625C0.78125 39.0547 10.9445 49.2188 23.4375 49.2188H24.2188V40.625H23.4375C15.6836 40.625 9.375 34.3164 9.375 26.5625ZM22.6562 47.6414C11.6438 47.2398 2.76016 38.3562 2.35781 27.3438H7.83203C8.22734 35.3391 14.6609 41.7727 22.6562 42.1688V47.6414Z" fill="#F76041"/>
<path d="M37.1812 29.5234C36.025 34.9172 31.7922 39.15 26.3984 40.307L25.7812 40.4391V49.1133L26.6734 48.9859C36.5562 47.5711 44.4461 39.6812 45.8602 29.7984L45.9875 28.9062H37.3141L37.1812 29.5234ZM44.1656 30.4687C42.5727 38.9531 35.8281 45.6969 27.3438 47.2906V41.6883C32.8375 40.2742 37.1492 35.9625 38.5633 30.4687H44.1656Z" fill="#F76041"/>
<path d="M9.69609 23.6018C10.8531 18.208 15.0859 13.9752 20.4789 12.8182L21.0969 12.6861V4.0127L20.2047 4.14004C10.3219 5.55488 2.43125 13.4447 1.01797 23.3275L0.890625 24.2189H9.56406L9.69609 23.6018ZM2.7125 22.6564C4.30547 14.1721 11.05 7.42832 19.5344 5.83457V11.4369C14.0406 12.8502 9.72891 17.1627 8.31406 22.6564H2.7125Z" fill="#F76041"/>
<path d="M35.0963 42.2352C35.5322 41.9102 35.9564 41.5656 36.358 41.2109L35.3252 40.0391C34.9549 40.3648 34.5635 40.6828 34.1611 40.9836L35.0963 42.2352Z" fill="#F76041"/>
<path d="M31.6221 42.5646L32.3346 43.9545C32.8127 43.71 33.2893 43.4396 33.7502 43.1529L32.9236 41.8271C32.5002 42.0912 32.0627 42.3389 31.6221 42.5646Z" fill="#F76041"/>
<path d="M28.8574 43.6994L29.3293 45.1885C29.8449 45.0252 30.359 44.8385 30.8574 44.6338L30.2645 43.1885C29.8059 43.376 29.3324 43.5479 28.8574 43.6994Z" fill="#F76041"/>
<path d="M11.6739 10.9707C11.2419 11.2981 10.82 11.6449 10.4185 12.0043L11.4606 13.1684C11.8302 12.8379 12.2192 12.5176 12.6169 12.2168L11.6739 10.9707Z" fill="#F76041"/>
<path d="M15.1458 10.6195L14.4216 9.23438C13.9419 9.48516 13.4677 9.75859 13.0122 10.0469L13.8474 11.3664C14.2669 11.1016 14.7036 10.85 15.1458 10.6195Z" fill="#F76041"/>
<path d="M17.8998 9.46504L17.4209 7.97754C16.9107 8.14238 16.3967 8.33223 15.8936 8.54395L16.4975 9.98457C16.9592 9.79004 17.4311 9.61582 17.8998 9.46504Z" fill="#F76041"/>
<path d="M5.60908 28.8115L4.05908 29.0053C4.12705 29.5498 4.21924 30.0975 4.33252 30.6326L5.86064 30.3092C5.75596 29.817 5.67158 29.3131 5.60908 28.8115Z" fill="#F76041"/>
<path d="M4.74854 32.2604C5.67901 35.3174 7.37355 38.1322 9.64934 40.3986L10.7517 39.2924C8.65793 37.2057 7.09933 34.6174 6.24307 31.8057L4.74854 32.2604Z" fill="#F76041"/>
<path d="M46.1109 3.62545C44.1078 1.6942 41.4758 0.688731 38.6828 0.78795C33.2953 0.984825 28.9094 5.53482 28.9062 10.9309C28.9055 12.9981 29.5148 14.9629 30.6766 16.6559L29.7141 17.6184C27.8688 16.3161 25.7156 15.6247 23.4375 15.6247C17.4062 15.6247 12.5 20.5309 12.5 26.5622C12.5 32.5934 17.4062 37.4997 23.4375 37.4997C29.4688 37.4997 34.375 32.5934 34.375 26.5622C34.375 24.8356 33.9641 23.1544 33.1898 21.6294L39.0625 21.0934C44.6625 21.0934 49.2188 16.5372 49.2188 10.9372C49.2188 8.15435 48.1148 5.5567 46.1109 3.62545ZM29.6336 27.3434H32.7734C32.7141 28.059 32.5781 28.7528 32.3664 29.4145L29.4602 28.2106C29.5367 27.9286 29.5961 27.6395 29.6336 27.3434ZM28.8617 29.6544L31.7617 30.8559C31.4359 31.4848 31.0437 32.0731 30.5891 32.6098L28.368 30.3887C28.5492 30.1559 28.7148 29.9114 28.8617 29.6544ZM27.2633 31.4934L29.4844 33.7145C28.9484 34.1684 28.3602 34.5614 27.7305 34.8872L26.5289 31.9872C26.7867 31.8395 27.0312 31.6739 27.2633 31.4934ZM23.4375 31.2497C20.8523 31.2497 18.75 29.1473 18.75 26.5622C18.75 23.977 20.8523 21.8747 23.4375 21.8747C26.0227 21.8747 28.125 23.977 28.125 26.5622C28.125 29.1473 26.0227 31.2497 23.4375 31.2497ZM19.6117 21.6309L17.3906 19.4098C18.8375 18.184 20.6586 17.3926 22.657 17.2262V20.3661C21.518 20.509 20.475 20.959 19.6117 21.6309ZM16.2852 20.5145L18.5062 22.7356C17.6828 23.7942 17.1875 25.12 17.1875 26.5622C17.1875 28.0044 17.6828 29.3301 18.5062 30.3887L16.2852 32.6098C14.9016 30.9754 14.0625 28.8661 14.0625 26.5622C14.0625 24.2583 14.9016 22.1489 16.2852 20.5145ZM17.3898 33.7145L19.6109 31.4934C20.6703 32.3169 21.9953 32.8122 23.4375 32.8122C24.0086 32.8122 24.5602 32.7286 25.0867 32.584L26.2906 35.4903C25.3898 35.7786 24.432 35.9372 23.4375 35.9372C21.1336 35.9372 19.0242 35.0981 17.3898 33.7145ZM32.7773 25.7809H29.6336C29.2797 22.959 27.0406 20.7208 24.2188 20.3661V17.2192C25.7953 17.3481 27.2859 17.8676 28.6031 18.745C28.3023 19.0872 28.125 19.5309 28.125 19.9887C28.125 21.0286 28.9711 21.8747 30.0109 21.8747H30.4188C30.4758 21.8747 30.5328 21.8723 30.5891 21.8669L31.4937 21.784C32.2211 23.0067 32.6594 24.3676 32.7773 25.7809ZM38.9922 19.534L30.4188 20.3122H30.0109C29.8328 20.3122 29.6875 20.1669 29.6875 19.9887C29.6875 19.9036 29.7219 19.82 29.782 19.7598L32.7469 16.7958L32.3172 16.2504C31.107 14.7161 30.468 12.877 30.4688 10.9325C30.4711 6.36607 34.182 2.51607 38.7406 2.34889C41.0969 2.26842 43.332 3.11607 45.0266 4.74967C46.7227 6.38482 47.6562 8.5817 47.6562 10.9372C47.6562 15.6754 43.8008 19.5309 38.9922 19.534Z" fill="#F76041"/>
</svg>
