<svg width="50" height="50" viewBox="0 0 50 50" fill="none" xmlns="http://www.w3.org/2000/svg">
<path d="M14.8438 31.25H16.4062V32.8125H14.8438V31.25Z" fill="#F76041"/>
<path d="M14.8438 34.375H16.4062V35.9375H14.8438V34.375Z" fill="#F76041"/>
<path d="M46.875 0.78125H28.125C26.8328 0.78125 25.7812 1.83281 25.7812 3.125V5.10859C25.3156 4.83984 24.782 4.6875 24.2188 4.6875C23.7375 4.6875 23.2547 4.80156 22.8211 5.01719C21.2797 5.78828 20.6539 7.66953 21.4234 9.21016L25.4117 17.1875H18.4719C20.0687 15.8977 21.0938 13.9266 21.0938 11.7188C21.0938 7.84219 17.9398 4.6875 14.0625 4.6875C10.1852 4.6875 7.03125 7.84219 7.03125 11.7188C7.03125 13.9711 8.1 15.975 9.75313 17.2625C4.71016 17.8523 0.78125 22.1453 0.78125 27.3438V39.0625H22.6562V24.2188C22.6562 23.7883 23.0063 23.4375 23.4375 23.4375H30.4695C30.9516 23.4375 31.4352 23.3234 31.8664 23.1078C33.4078 22.3367 34.0336 20.4555 33.2641 18.9148L32.7906 17.9688H36.7188V20.3484C36.7188 21.6211 37.7539 22.6562 39.0266 22.6562C39.8 22.6562 40.518 22.2719 40.9469 21.6289L43.3867 17.9688H46.875C48.1672 17.9688 49.2188 16.9172 49.2188 15.625V3.125C49.2188 1.83281 48.1672 0.78125 46.875 0.78125ZM14.0687 27.3859C13.6055 26.9516 13.1695 26.4953 12.7695 26.0109L13.6781 18.75H14.4477L15.3547 26.0062C14.9555 26.4914 14.5289 26.9531 14.0687 27.3859ZM9.56953 18.8695C10.0164 18.7977 10.4711 18.75 10.9375 18.75H12.1031L11.4344 24.0961C10.4945 22.4992 9.86016 20.7328 9.56953 18.8695ZM16.6883 24.0828L16.0219 18.75H18.5703C18.2883 20.643 17.6461 22.4508 16.6883 24.0828ZM8.59375 11.7188C8.59375 8.70312 11.0477 6.25 14.0625 6.25C17.0773 6.25 19.5312 8.70312 19.5312 11.7188C19.5312 14.7344 17.0773 17.1875 14.0625 17.1875C11.0477 17.1875 8.59375 14.7344 8.59375 11.7188ZM2.34375 27.3438C2.34375 23.6187 4.73047 20.4492 8.05078 19.2594C8.62891 22.7602 10.3117 25.95 12.8758 28.4055L11.7188 29.3055V37.5H7.03125V27.3438H5.46875V37.5H2.34375V27.3438ZM31.168 21.7109C30.9523 21.8188 30.7109 21.875 30.4695 21.875H23.4375C22.1453 21.875 21.0938 22.9266 21.0938 24.2188V37.5H13.2812V30.0703L13.9797 29.5273C17.3687 26.8906 19.5766 22.9914 20.1469 18.7508H26.1938L27.1727 20.7078L28.5703 20.0086L22.8219 8.51172C22.4367 7.74063 22.75 6.8 23.5203 6.41484C24.2727 6.03828 25.2422 6.36484 25.6164 7.11094L31.868 19.6125C32.2516 20.3844 31.9383 21.325 31.168 21.7109ZM32.0312 13.2812H30.4688V10.1562H32.0312V13.2812ZM47.6562 15.625C47.6562 16.0555 47.3063 16.4062 46.875 16.4062H42.5508L39.6469 20.7617C39.5078 20.9695 39.2758 21.0938 39.0266 21.0938C38.6156 21.0938 38.2812 20.7594 38.2812 20.3484V16.4062H32.0094L31.2281 14.8438H46.0938V5.46875H41.4062V13.2812H39.8438V3.90625H35.1562V13.2812H33.5938V8.59375H28.9062V10.2L27.3438 7.075V3.125C27.3438 2.69453 27.6938 2.34375 28.125 2.34375H46.875C47.3063 2.34375 47.6562 2.69453 47.6562 3.125V15.625ZM38.2812 13.2812H36.7188V5.46875H38.2812V13.2812ZM42.9688 13.2812V7.03125H44.5312V13.2812H42.9688Z" fill="#F76041"/>
<path d="M36.7188 24.2188C29.8266 24.2188 24.2188 29.8266 24.2188 36.7188C24.2188 39.4484 25.0875 42.0422 26.732 44.2211L27.1445 44.768L32.7188 41.6078L32.0703 40.8852C31.0383 39.7328 30.4688 38.2531 30.4688 36.7188C30.4688 33.2727 33.2727 30.4688 36.7188 30.4688C40.1648 30.4688 42.9688 33.2727 42.9688 36.7188C42.9688 38.2531 42.3992 39.7328 41.3672 40.8852L40.7164 41.6109L46.307 44.7508L46.7172 44.2047C48.3547 42.0297 49.2188 39.4406 49.2188 36.7188C49.2188 29.8266 43.6109 24.2188 36.7188 24.2188ZM27.5844 42.7219C26.5461 41.1555 25.9414 39.3734 25.8094 37.5H28.9508C29.0844 38.8203 29.5492 40.0844 30.3109 41.1758L27.5844 42.7219ZM28.9461 35.9375H25.8211C25.9937 33.5094 26.9578 31.3016 28.4625 29.5672L30.6734 31.7781C29.725 32.9359 29.1023 34.3688 28.9461 35.9375ZM31.7781 30.6734L29.5672 28.4625C31.3016 26.9578 33.5102 25.9937 35.9375 25.8211V28.9461C34.3687 29.1023 32.9352 29.7258 31.7781 30.6734ZM37.5 28.9461V25.8211C39.9281 25.9937 42.1359 26.9578 43.8703 28.4625L41.6594 30.6734C40.5023 29.7258 39.0688 29.1023 37.5 28.9461ZM42.7641 31.7781L44.975 29.5672C46.4797 31.3016 47.4438 33.5102 47.6164 35.9375H44.4914C44.3352 34.3688 43.7125 32.9359 42.7641 31.7781ZM45.8617 42.7086L43.1281 41.1734C43.8891 40.0828 44.3531 38.8195 44.4867 37.5008H47.6281C47.4969 39.368 46.8953 41.1445 45.8617 42.7086Z" fill="#F76041"/>
<path d="M38.3797 33.4797C38.2656 32.6539 37.5516 32.0312 36.7188 32.0312C35.8859 32.0312 35.1719 32.6539 35.057 33.4805L33.7906 42.7547C33.1891 43.4422 32.8125 44.3305 32.8125 45.3125C32.8125 47.4664 34.5648 49.2188 36.7188 49.2188C38.8727 49.2188 40.625 47.4664 40.625 45.3125C40.625 44.3305 40.2484 43.4422 39.6469 42.7547L38.3797 33.4797ZM36.6047 33.693C36.6211 33.5797 36.8164 33.5805 36.8313 33.6922L37.9133 41.6125C37.5344 41.4898 37.1383 41.4062 36.7188 41.4062C36.2992 41.4062 35.9031 41.4898 35.5242 41.6133L36.6047 33.693ZM36.7188 47.6562C35.4266 47.6562 34.375 46.6047 34.375 45.3125C34.375 44.0203 35.4266 42.9688 36.7188 42.9688C38.0109 42.9688 39.0625 44.0203 39.0625 45.3125C39.0625 46.6047 38.0109 47.6562 36.7188 47.6562Z" fill="#F76041"/>
</svg>
