<svg width="50" height="50" viewBox="0 0 50 50" fill="none" xmlns="http://www.w3.org/2000/svg">
<g clip-path="url(#clip0)">
<path d="M48.6547 43.0254C49.5809 41.7162 50.054 40.1396 49.9948 38.5176C49.9273 36.6572 49.1644 34.9066 47.8468 33.5894L44.5791 30.3217C45.252 27.8479 45.45 25.2997 45.1658 22.7393C45.1212 22.3376 44.7592 22.0484 44.3571 22.0923C43.955 22.1369 43.6655 22.4989 43.7101 22.901C43.9424 24.9934 43.8269 27.077 43.3699 29.1121L42.3216 28.0638C41.7841 27.5263 41.0688 27.2303 40.3082 27.2303C39.5456 27.2303 38.8304 27.5263 38.294 28.0642C37.1847 29.1747 37.1847 30.9813 38.2944 32.091L41.0463 34.8418C40.2777 36.0903 39.3595 37.2534 38.31 38.3036C33.7309 42.8828 27.1528 44.7661 20.8837 43.3669L21.9335 42.3171C22.471 41.7792 22.7671 41.0647 22.7671 40.3044C22.7671 39.5422 22.4707 38.827 21.9332 38.2906C20.8235 37.1813 19.0172 37.1813 17.906 38.2906L15.1506 41.0456C13.8941 40.2739 12.7275 39.3542 11.6781 38.3036C10.573 37.1985 9.61093 35.9644 8.81671 34.6369C8.80908 34.6213 8.80336 34.6049 8.7942 34.59C8.48407 34.0643 8.20102 33.5272 7.95154 32.9905C7.59028 32.2211 7.27824 31.4169 7.02533 30.601C7.01388 30.5644 6.99901 30.5296 6.9826 30.4961C6.26849 28.155 6.01787 25.7285 6.23912 23.2813C6.27574 22.8785 5.97857 22.5226 5.57574 22.486C5.17405 22.449 4.817 22.7465 4.78038 23.1493C4.55111 25.6792 4.79068 28.1893 5.49029 30.6174L2.3363 33.7714C1.02557 35.0817 0.263013 36.8224 0.188627 38.6721C0.123777 40.2846 0.585355 41.8547 1.49707 43.1624L1.42383 43.2356C0.872983 43.7865 0.569715 44.5185 0.569715 45.2971C0.569715 46.0757 0.872983 46.8077 1.42383 47.3586L2.78186 48.7166C3.34987 49.285 4.0964 49.5692 4.84294 49.5692C5.58948 49.5692 6.33563 49.285 6.90402 48.7166L6.96963 48.651C8.21284 49.5314 9.68493 49.9972 11.1978 49.9972C11.6476 49.9972 12.1012 49.956 12.5528 49.8724C12.9507 49.7988 13.2135 49.4166 13.1399 49.0191C13.0663 48.6212 12.6833 48.3591 12.2866 48.432C10.7912 48.7086 9.27791 48.4034 8.02592 47.5951L9.56859 46.0524C9.947 45.674 10.2083 45.2101 10.335 44.7039C11.4168 45.455 12.9175 45.3501 13.8807 44.3865L15.7782 42.4895C15.7793 42.4883 15.7804 42.4872 15.782 42.4857L18.9413 39.3267C19.4811 38.7877 20.3588 38.7877 20.8982 39.3271C21.1588 39.5869 21.3022 39.934 21.3022 40.3044C21.3022 40.6733 21.1584 41.0204 20.8975 41.2814L18.9443 43.2345C18.9413 43.2372 18.939 43.2398 18.9363 43.2425L15.3719 46.8066C15.1781 47.0004 14.9702 47.1816 14.7535 47.3456C14.4308 47.5893 14.3671 48.0486 14.6112 48.3714C14.755 48.5617 14.974 48.662 15.1956 48.662C15.3498 48.662 15.505 48.6136 15.637 48.5136C15.9071 48.3096 16.1665 48.0837 16.4076 47.8423L19.6741 44.5765C21.4315 45.0526 23.2183 45.2853 24.9922 45.2853C26.8984 45.2853 28.7882 45.0152 30.607 44.4918L33.7744 47.6603C35.0851 48.9706 36.8257 49.7332 38.6759 49.8072C38.7754 49.8114 38.8746 49.8133 38.9738 49.8133C40.481 49.8133 41.9397 49.3536 43.1665 48.4984L43.2405 48.5724C43.8085 49.1404 44.5551 49.4246 45.3016 49.4246C46.0482 49.4246 46.7943 49.1404 47.3627 48.5724L48.7207 47.2144C49.2716 46.6635 49.5748 45.9315 49.5748 45.1529C49.5748 44.3743 49.2716 43.6423 48.7207 43.0918L48.6547 43.0254ZM1.65194 38.7312C1.71145 37.25 2.32219 35.8565 3.37161 34.8071L6.00642 32.1726C6.35356 33.0916 6.76784 33.9854 7.24544 34.8444L5.79127 36.2982C5.26675 36.822 4.97798 37.5193 4.97798 38.2613C4.97798 38.8194 5.14125 39.3523 5.44566 39.8051C4.94784 39.9279 4.47635 40.1835 4.08801 40.5714L2.55298 42.1065C1.9205 41.1063 1.6035 39.9332 1.65194 38.7312ZM8.5329 45.0167L6.40391 47.1453C6.40391 47.1457 6.40353 47.1457 6.40315 47.1461L5.86833 47.6809C5.30299 48.2462 4.38289 48.2462 3.81717 47.6809L2.45913 46.3229C2.18524 46.049 2.03418 45.6847 2.03418 45.2971C2.03418 44.9099 2.18524 44.5456 2.45913 44.2717L2.98289 43.7479C2.9848 43.746 2.98671 43.7445 2.98823 43.7426L5.1237 41.6075C5.40637 41.3248 5.77754 41.1833 6.14909 41.1833C6.51874 41.1833 6.888 41.3237 7.17029 41.6037L8.46766 42.9003L8.5329 42.9655C8.80679 43.2394 8.95747 43.6037 8.95747 43.9909C8.95785 44.3785 8.80679 44.7428 8.5329 45.0167ZM12.845 43.3508C12.5975 43.5988 12.2679 43.7354 11.9177 43.7354C11.5675 43.7354 11.2379 43.5988 10.9903 43.3508L9.57583 41.9367C9.57583 41.9367 9.56859 41.9299 9.56859 41.9295L8.93611 41.297L8.21055 40.5718C8.20903 40.5703 8.20712 40.5688 8.2056 40.5672L6.82696 39.189C6.57901 38.9414 6.44244 38.6118 6.44244 38.2613C6.44244 37.9111 6.57901 37.5819 6.82696 37.3343L8.02897 36.1323C8.69578 37.1443 9.45453 38.0991 10.296 38.9822L9.91954 39.3588C9.63344 39.6449 9.63344 40.1083 9.91954 40.3944C10.0626 40.5375 10.2503 40.6088 10.4376 40.6088C10.6249 40.6088 10.8126 40.5375 10.9556 40.3944L11.3443 40.0057C12.1996 40.7843 13.1182 41.4874 14.089 42.1072L12.845 43.3508ZM39.3305 29.0991C39.5903 28.8386 39.9374 28.6951 40.3078 28.6951C40.6778 28.6951 41.025 28.839 41.2859 29.0995L46.8111 34.6251C48.7802 36.5942 49.0675 39.6834 47.5992 41.9699L46.0565 40.4272C45.6705 40.0416 45.2024 39.7871 44.708 39.6632C45.0304 39.2016 45.2047 38.6534 45.2047 38.0785C45.2047 37.337 44.916 36.64 44.3914 36.1155L39.3301 31.0553C38.7911 30.5163 38.7911 29.6389 39.3305 29.0991ZM38.9807 39.6952L39.3621 40.0767C39.5052 40.2193 39.6929 40.2911 39.8802 40.2911C40.0675 40.2911 40.2552 40.2193 40.3982 40.0763C40.6839 39.7902 40.6839 39.3267 40.3978 39.0406L40.0034 38.6462C40.7839 37.7894 41.4877 36.8716 42.1072 35.903L43.3557 37.1512C43.6037 37.3988 43.7399 37.728 43.7399 38.0785C43.7399 38.4287 43.6037 38.7579 43.3557 39.0059L41.9378 40.4238C41.9367 40.425 41.9351 40.4261 41.934 40.4272L40.576 41.7853C40.5744 41.7864 40.5733 41.788 40.5722 41.7891L39.1928 43.1689C38.6812 43.68 37.8492 43.68 37.3373 43.1689L36.1269 41.9581C37.1343 41.297 38.0903 40.5421 38.9807 39.6952ZM38.7342 48.3439C37.253 48.2844 35.8595 47.6736 34.8101 46.6246L32.1676 43.9818C32.6582 43.7972 33.1423 43.5934 33.6157 43.3718C34.0269 43.1799 34.4381 42.9701 34.8429 42.7462L36.3016 44.2046C37.2534 45.1559 38.7289 45.2708 39.8069 44.5502C39.9328 45.0598 40.1949 45.5275 40.5756 45.9082L42.1099 47.4421C41.1093 48.0746 39.9355 48.3916 38.7342 48.3439ZM47.685 46.1783L46.3266 47.5363C45.7617 48.1017 44.8416 48.102 44.2758 47.5363L41.6117 44.8721C41.3374 44.5982 41.1867 44.2339 41.1867 43.8467C41.1867 43.4603 41.337 43.0968 41.6098 42.8233L42.9716 41.4614C43.2543 41.1799 43.6247 41.0391 43.9951 41.0391C44.3663 41.0391 44.7378 41.1803 45.0205 41.4629L47.162 43.6045C47.1624 43.6045 47.1628 43.6049 47.1628 43.6053L47.685 44.1271C47.9593 44.401 48.11 44.7653 48.11 45.1529C48.11 45.5405 47.9589 45.9044 47.685 46.1783Z" fill="#F76041"/>
<path d="M7.67989 21.9268C8.21738 22.4643 8.93225 22.7603 9.69252 22.7603C10.4551 22.7603 11.1703 22.4643 11.7067 21.9264C12.816 20.8159 12.816 19.0093 11.7063 17.8996L8.94217 15.1358C9.65781 13.9724 10.5043 12.8844 11.4664 11.8914C11.487 11.8747 11.5072 11.8571 11.5266 11.8377C11.5507 11.8136 11.572 11.7877 11.5922 11.761C11.6209 11.732 11.6498 11.7026 11.6788 11.6732C12.7721 10.5803 13.9902 9.62895 15.2997 8.84159C15.3371 8.8271 15.3738 8.80955 15.4092 8.78857C15.9303 8.48072 16.467 8.19729 17.0064 7.9459C17.7785 7.58427 18.5827 7.27261 19.3971 7.02007C19.4398 7.00672 19.4803 6.98879 19.5192 6.96819C22.6564 6.01757 25.9527 5.8997 29.1337 6.6161L28.0721 7.67773C27.5339 8.2156 27.2375 8.93047 27.2375 9.69036C27.2375 10.4518 27.5342 11.167 28.0721 11.7038C29.1822 12.8138 30.9885 12.8138 32.0981 11.7038L34.8588 8.94344C36.107 9.71211 37.2663 10.628 38.3104 11.6732C39.4884 12.852 40.5027 14.1738 41.3255 15.6016C41.6471 16.1609 42.5626 18.0949 42.9594 19.3145C42.9697 19.3686 42.9864 19.4213 43.0089 19.472C43.0093 19.4732 43.0097 19.4739 43.0097 19.4747C43.157 19.9611 43.4484 19.9092 43.6784 19.9092H43.6792C43.8665 19.9088 44.0534 19.8375 44.1965 19.6948L47.669 16.2234C48.9797 14.9127 49.7423 13.1724 49.8163 11.3223C49.8811 9.7102 49.4195 8.13969 48.5078 6.83201L48.5811 6.75877C49.1315 6.20831 49.4348 5.47627 49.4348 4.6973C49.4348 3.91872 49.1315 3.18668 48.5811 2.63622L47.223 1.27819C46.0863 0.141793 44.2373 0.141793 43.1005 1.27819L43.0349 1.3438C41.7257 0.417595 40.1502 -0.0558085 38.5259 0.00408222C36.6651 0.0719839 34.9145 0.834923 33.5969 2.15252L30.3422 5.40722C26.7385 4.42493 22.9665 4.45126 19.3773 5.48275L16.226 2.33067C14.9152 1.02032 13.1746 0.25776 11.3244 0.183754C9.71388 0.118523 8.14185 0.580483 6.83379 1.4922L6.76054 1.41857C5.62376 0.282174 3.77478 0.282555 2.638 1.41857L1.28035 2.7766C0.729509 3.32706 0.42624 4.05911 0.42624 4.83769C0.42624 5.61665 0.729509 6.34869 1.28035 6.89915L1.34635 6.96514C0.419755 8.27473 -0.0528857 9.85134 0.00586065 11.4734C0.0733808 13.3338 0.83632 15.084 2.15392 16.4016L7.67989 21.9268ZM40.4058 8.0344C40.4157 8.04432 40.4256 8.055 40.4359 8.06492L43.1776 10.8054C43.4255 11.0534 43.5621 11.3829 43.5621 11.7331C43.5621 12.0837 43.4259 12.4129 43.1776 12.6605L41.9733 13.8648C41.308 12.8524 40.55 11.8972 39.7088 11.0122L40.0854 10.636C40.3715 10.3499 40.3715 9.88606 40.0854 9.60034C39.7993 9.31423 39.3354 9.31423 39.0497 9.60034L38.6625 9.98753C37.8076 9.20742 36.8902 8.50323 35.9205 7.88258L37.1595 6.64356C37.671 6.13201 38.5038 6.13201 39.0153 6.64356L40.4058 8.0344ZM48.353 11.2635C48.2938 12.7448 47.6831 14.1379 46.6337 15.1873L43.9794 17.8405C43.6033 16.8433 43.0513 15.7248 42.7518 15.158L44.2129 13.6966C44.7378 13.1724 45.0265 12.4755 45.0265 11.7335C45.0265 11.1754 44.8633 10.6429 44.5589 10.1897C45.0567 10.0669 45.5285 9.81129 45.9169 9.42295L47.4515 7.8883C48.0844 8.88889 48.4014 10.0615 48.353 11.2635ZM45.162 1.88969C45.5335 1.88969 45.9047 2.03121 46.1873 2.31388L47.5458 3.67191C47.8197 3.94581 47.9703 4.30973 47.9703 4.6973C47.9703 5.08488 47.8197 5.44918 47.5458 5.72308L47.0128 6.25599C47.0113 6.25752 47.0094 6.25904 47.0083 6.26057L44.8812 8.38726C44.3159 8.9526 43.3958 8.9526 42.8304 8.38726L41.4724 7.02923C40.9067 6.46351 40.9067 5.5434 41.472 4.97807L44.1366 2.31388C44.4192 2.03083 44.7904 1.88969 45.162 1.88969ZM34.633 3.18783C36.6025 1.2183 39.6921 0.931054 41.9794 2.39971L40.4363 3.94238C40.0503 4.32842 39.7954 4.79687 39.6718 5.29163C38.59 4.53938 37.0878 4.6439 36.1238 5.60787L31.0632 10.6681C30.5242 11.2071 29.6472 11.2071 29.1074 10.6677C28.8461 10.4071 28.7027 10.06 28.7027 9.69036C28.7027 9.32186 28.8465 8.97472 29.1082 8.71304L34.633 3.18783ZM6.64572 12.8394C6.39777 12.5918 6.26158 12.2626 6.26158 11.912C6.26158 11.5619 6.39777 11.2326 6.64572 10.9847L10.8091 6.82209C11.3206 6.31054 12.1526 6.31054 12.6642 6.82209L13.8605 8.018C12.8484 8.68366 11.8928 9.44203 11.0082 10.2835L10.6386 9.9139C10.3525 9.62818 9.88898 9.62818 9.60288 9.9139C9.31715 10.2 9.31715 10.6639 9.60288 10.95L9.98358 11.3303C9.20348 12.1859 8.50043 13.1053 7.88092 14.0746L6.64572 12.8394ZM11.2661 1.64707C12.7473 1.7062 14.1412 2.31693 15.1906 3.36636L17.822 5.99812C16.9019 6.34525 16.0078 6.75953 15.1494 7.2356L13.6999 5.78602C12.7485 4.83463 11.2722 4.71981 10.1942 5.44117C10.0683 4.93115 9.8062 4.46346 9.42511 4.08276L7.89046 2.54849C8.89143 1.91563 10.0648 1.59863 11.2661 1.64707ZM2.31604 3.81229L3.67407 2.45426C3.95674 2.17159 4.32791 2.03045 4.69946 2.03045C5.07102 2.03045 5.44219 2.17159 5.72524 2.45426L6.25586 2.98527C6.25853 2.98756 6.2612 2.99061 6.26387 2.9929L8.3898 5.11845C8.6637 5.39272 8.81438 5.75665 8.81438 6.14422C8.81438 6.53179 8.6637 6.89571 8.3898 7.16961L7.03139 8.52764C6.46605 9.09298 5.54595 9.09336 4.98023 8.52764L2.31604 5.86346C2.04176 5.58956 1.89108 5.22526 1.89108 4.83769C1.89108 4.45049 2.04176 4.08619 2.31604 3.81229ZM2.40225 8.02105L3.94454 9.56333C4.33058 9.94938 4.79903 10.2038 5.29341 10.3278C4.97107 10.7894 4.79674 11.3372 4.79674 11.912C4.79674 12.6536 5.08589 13.3509 5.61003 13.8751L10.6706 18.9353C11.2096 19.4743 11.2096 20.3517 10.6702 20.8915C10.4101 21.152 10.0629 21.2954 9.69252 21.2954C9.32364 21.2954 8.9765 21.152 8.71558 20.8911L3.18961 15.3655C1.22008 13.3963 0.933214 10.3076 2.40225 8.02105Z" fill="#F76041"/>
<path d="M15.1326 27.5778L11.538 30.7638C10.9708 31.2666 10.9181 32.1371 11.4209 32.7044L13.4015 34.9386C13.4038 34.9409 13.4057 34.9436 13.4076 34.9463C13.4095 34.9482 13.411 34.9497 13.4129 34.9512L15.3127 37.0943C15.5835 37.4003 15.9619 37.5563 16.3419 37.5563C16.6661 37.5563 16.9915 37.4426 17.2528 37.2111L20.8474 34.0246C21.415 33.5223 21.4673 32.6514 20.9645 32.0841L17.0731 27.6945C16.5704 27.1273 15.6999 27.075 15.1326 27.5778ZM16.0367 28.7337L17.4489 30.3263L14.0111 33.4185L12.5768 31.8003L16.0367 28.7337ZM16.3487 36.0552L14.9831 34.5145L18.4205 31.4226L19.8087 32.9882L16.3487 36.0552Z" fill="#F76041"/>
<path d="M33.0255 13.0404L27.8692 17.6104C27.572 17.874 27.3954 18.2376 27.3714 18.6339C27.3477 19.0303 27.4793 19.4121 27.7429 19.7093L31.4859 23.9314C31.7491 24.2286 32.1126 24.4052 32.509 24.4292C32.5395 24.4311 32.57 24.4319 32.6002 24.4319C32.9637 24.4319 33.3105 24.3007 33.5844 24.0577L38.7407 19.4873C39.0378 19.2241 39.2145 18.8605 39.2385 18.4642C39.2625 18.0674 39.1305 17.6856 38.8669 17.3884L35.1243 13.1667C34.5804 12.5533 33.6389 12.4968 33.0255 13.0404ZM37.7763 18.3761C37.7759 18.3852 37.7717 18.389 37.7691 18.3909V18.3913L32.6128 22.9613C32.6101 22.9636 32.607 22.9682 32.5971 22.967C32.588 22.9667 32.5841 22.9621 32.5819 22.9598L28.8393 18.7377C28.837 18.7354 28.8332 18.7308 28.8335 18.722C28.8343 18.7129 28.8385 18.7091 28.8408 18.7068L33.9971 14.1368C34.0013 14.133 34.0066 14.1311 34.0116 14.1311C34.0181 14.1311 34.0238 14.1333 34.028 14.1383L37.771 18.3604C37.7733 18.3627 37.7771 18.3673 37.7763 18.3761Z" fill="#F76041"/>
</g>
<defs>
<clipPath id="clip0">
<rect width="50" height="50" fill="white"/>
</clipPath>
</defs>
</svg>
