<svg width="105" height="82" viewBox="0 0 105 82" fill="none" xmlns="http://www.w3.org/2000/svg">
<path fill-rule="evenodd" clip-rule="evenodd" d="M53.3888 0C49.7982 0 46.3754 0.604021 43.1875 1.74496C45.6707 1.04026 48.3217 0.671141 51.0398 0.671141C67.0465 0.671141 80.0331 13.6577 80.0331 29.6644C80.0331 45.6712 67.0465 58.6577 51.0398 58.6577C39.4291 58.6577 29.3955 51.8121 24.7646 41.9463C29.2277 53.3893 40.3687 61.5101 53.3888 61.5101C70.3687 61.5101 84.1271 47.7517 84.1271 30.7718C84.1271 13.7919 70.3687 0 53.3888 0Z" fill="black"/>
<path fill-rule="evenodd" clip-rule="evenodd" d="M46.1073 2.91943C44.9328 2.98655 43.1207 3.18789 41.4093 3.59057C39.6643 3.9597 38.02 4.53017 36.9797 5.26843C35.9395 5.97313 35.5368 6.84561 35.3354 7.51675C35.1341 8.1879 35.1341 8.6577 35.1341 8.8926C35.1341 9.12749 35.1341 9.12749 34.8656 8.85904C34.5972 8.59058 34.0267 8.05367 33.2213 7.85232C32.416 7.65098 31.4093 7.78521 30.5368 7.88588C29.6643 7.98656 28.926 8.08722 28.2213 8.02011C27.5166 7.953 26.8455 7.71809 26.5099 7.58386C26.1744 7.44963 26.1744 7.44964 26.4428 7.88588C26.7113 8.28857 27.2146 9.12749 27.9193 9.73152C28.624 10.3355 29.5301 10.7047 30.3354 11.0738C31.1073 11.4765 31.7784 11.8792 32.114 12.3154C32.4495 12.7517 32.4831 13.1879 32.5167 13.4228C32.5502 13.6577 32.5502 13.6577 31.9126 14.0939C31.3086 14.5637 30.067 15.4698 29.3623 16.0402C28.6911 16.6443 28.5569 16.8792 28.4898 17.2147C28.4227 17.5503 28.4227 17.9194 28.3891 18.1208C28.322 18.3221 28.2213 18.3557 27.2817 19.0268C26.3422 19.7315 24.5636 21.1074 23.3556 22.0805C22.1475 23.0537 21.5435 23.6577 21.2079 24.0939C20.8724 24.5637 20.8052 24.8657 20.8388 25.2349C20.8724 25.604 21.0066 25.9731 21.1073 26.1745C21.2079 26.3758 21.275 26.4429 21.3086 26.5772C21.3086 26.7449 21.2415 27.0134 21.2415 27.4832C21.2079 27.953 21.2079 28.6241 21.4093 29.2617C21.6106 29.8657 22.0468 30.4362 22.3489 30.8053C22.6509 31.1745 22.8522 31.3423 22.9529 31.51C23.02 31.6778 22.9529 31.8456 22.9864 32.4832C22.9864 33.1543 23.0871 34.2953 23.4898 35.2013C23.8925 36.1074 24.5972 36.745 25.2012 37.2483C25.8052 37.7181 26.3422 38.0537 26.6106 38.2215C26.8791 38.3892 26.8791 38.3892 26.8455 39.0268C26.8119 39.6644 26.7784 40.906 27.2146 42.1812C27.6173 43.4564 28.4898 44.7651 29.1945 45.6711C29.8992 46.5772 30.4361 47.1141 30.973 47.5503C31.4764 47.9866 31.9462 48.3557 32.1811 48.557C32.416 48.7248 32.416 48.7248 31.9797 48.1544C31.5435 47.5839 30.6375 46.4094 29.9999 45.1678C29.3623 43.9262 28.9596 42.5839 28.8925 41.2416C28.8254 39.8993 29.0267 38.5906 29.4294 37.5839C29.7985 36.5772 30.369 35.906 30.6375 35.5369C30.9059 35.2013 30.9059 35.2013 30.8052 35.7047C30.7046 36.2416 30.5032 37.2819 30.5032 38.3892C30.5032 39.4966 30.7046 40.6376 30.973 41.5436C31.2415 42.4161 31.577 43.0201 31.7113 43.3221C31.8455 43.6241 31.8791 43.6242 31.9462 42.6846C32.0133 41.745 32.1811 39.8322 32.8858 38.3892C33.5905 36.9463 34.8321 36.0067 36.2079 35.0671C37.5838 34.1275 39.1274 33.1879 40.4697 32.349C41.812 31.51 42.9864 30.7718 43.624 30.2349C44.2952 29.6644 44.4294 29.2617 44.5301 29.0604C44.5972 28.859 44.5972 28.859 44.1274 28.9933C43.624 29.1275 42.6844 29.396 41.4764 29.4295C40.3019 29.4631 38.8925 29.2953 37.8522 29.0604C36.812 28.859 36.1408 28.5906 35.8052 28.4899C35.4697 28.3557 35.4697 28.3557 36.0401 28.0872C36.6106 27.8188 37.7515 27.2483 38.624 26.51C39.4965 25.7718 40.1341 24.8657 40.5032 24.0604C40.8724 23.255 40.9395 22.5839 40.973 22.2147C41.0066 21.8792 41.0066 21.8792 40.7046 22.3154C40.4026 22.7852 39.8321 23.6912 38.7583 24.3624C37.718 25.0335 36.1744 25.5033 34.7985 25.6711C33.4227 25.8389 32.1811 25.7718 31.4093 25.5704C30.6039 25.3691 30.2683 25 30.1005 24.8322C29.9328 24.6644 29.9328 24.6644 29.9663 25.0335C29.9999 25.4027 30.067 26.1409 30.6375 26.7785C31.2079 27.4161 32.2817 27.953 32.8187 28.255C33.3556 28.5235 33.3556 28.5235 33.0871 28.6913C32.8187 28.859 32.2817 29.1946 31.9126 29.7651C31.5435 30.3355 31.275 31.1074 31.1744 31.6443C31.0401 32.1812 31.0401 32.4496 31.0066 32.6174C30.9395 32.7517 30.8388 32.7517 30.3354 32.9866C29.8321 33.2215 28.9596 33.6577 28.3556 34.1611C27.718 34.6644 27.3489 35.2349 27.1811 35.6711C27.0133 36.1074 27.0469 36.3758 27.0804 36.51C27.114 36.6443 27.114 36.6443 26.6442 36.208C26.2079 35.7718 25.3019 34.8993 24.8992 34.0939C24.4965 33.2886 24.5636 32.5503 24.6643 32.1141C24.765 31.6443 24.8656 31.4765 24.8992 31.3758C24.9663 31.2752 24.9663 31.2751 25.3354 31.2751C25.7046 31.2751 26.4764 31.2751 27.0804 31.4094C27.6844 31.5436 28.1207 31.8456 28.2549 31.8792C28.4227 31.9127 28.322 31.6778 28.0536 31.3758C27.7851 31.0738 27.3489 30.6711 26.7784 30.4698C26.2079 30.2684 25.4697 30.2349 24.9999 30.2684C24.5301 30.2684 24.3623 30.3355 24.1274 30.2684C23.8925 30.2349 23.6576 30.1006 23.4227 29.7651C23.1878 29.4295 23.02 28.859 22.9193 28.557C22.8187 28.2886 22.8187 28.2886 23.1542 28.1879C23.4898 28.0872 24.0938 27.953 24.6979 27.5839C25.3019 27.2147 25.8388 26.6443 26.1408 26.2416C26.4428 25.8389 26.4764 25.6376 26.4428 25.5033C26.4093 25.3691 26.275 25.3356 25.7717 25.3356C25.2683 25.3356 24.3958 25.4027 23.8254 25.4362C23.2549 25.4698 22.9864 25.4698 22.8522 25.4362C22.6844 25.4027 22.6509 25.3355 22.8858 25.0335C23.0871 24.7315 23.5569 24.1611 24.463 23.3221C25.369 22.4832 26.7113 21.4094 27.7516 20.604C28.7918 19.8322 29.5636 19.3624 29.9663 19.0604C30.3354 18.7919 30.3354 18.6913 30.3019 18.4228C30.3019 18.1543 30.3019 17.7517 30.7046 17.1476C31.1073 16.5436 31.9462 15.7382 32.6844 15.1342C33.3891 14.5302 34.0267 14.161 34.3287 13.9597C34.6307 13.7584 34.6307 13.7584 34.4965 13.3221C34.3623 12.8523 34.1274 11.9463 33.6911 11.208C33.2213 10.4698 32.5502 9.93286 32.2482 9.6644C31.9126 9.39595 31.9126 9.39594 32.3489 9.4295C32.7851 9.46306 33.624 9.59729 34.4294 9.96641C35.2348 10.3691 35.973 11.0402 36.4093 11.51C36.8455 11.9798 36.9797 12.1812 37.0133 12.3154C37.0469 12.4496 37.0804 12.4161 37.114 11.7449C37.1475 11.0738 37.2482 9.73151 37.5502 8.59057C37.8522 7.44963 38.4227 6.51004 39.4294 5.73822C40.4361 4.96641 41.8791 4.36238 43.322 3.89259C44.7314 3.42279 46.1073 3.08722 46.9797 2.91943C47.8187 2.75165 48.1542 2.71809 48.322 2.71809C48.4898 2.71809 48.4898 2.7181 48.2214 2.68454C47.8187 2.91944 47.2817 2.85232 46.1073 2.91943Z" fill="black"/>
<path fill-rule="evenodd" clip-rule="evenodd" d="M42.1474 25.906C42.8186 25.1007 43.6575 23.9597 43.9931 22.6846C44.3286 21.4094 44.1608 19.9664 43.4897 18.7584C42.8186 17.5503 41.6776 16.5436 41.0065 16.0403C40.3353 15.5369 40.2011 15.5369 40.1004 15.5369C40.0333 15.5369 40.0333 15.5369 40.5367 15.1678C41.04 14.7987 42.0803 14.0604 43.1206 13.6242C44.1608 13.1879 45.2011 13.0201 45.738 12.953C46.2749 12.8859 46.2749 12.8859 45.8387 12.7181C45.436 12.5503 44.5971 12.2148 43.7246 12.0805C42.8521 11.9463 41.9125 12.0134 41.4427 12.047C40.9729 12.0805 40.9729 12.0805 41.7447 11.7785C42.5165 11.4765 44.0602 10.906 45.8723 10.8389C47.6843 10.7718 49.7313 11.208 51.4092 11.9463C53.1206 12.6846 54.4629 13.7584 55.3353 14.6644C56.2078 15.5369 56.6441 16.2416 56.8454 16.5772C57.0467 16.9128 57.0468 16.9128 56.7783 16.7114C56.4763 16.5101 55.9058 16.1409 55.134 15.8389C54.3622 15.5369 53.4226 15.302 52.9528 15.2013C52.483 15.1007 52.483 15.1007 53.0535 15.9396C53.6239 16.8121 54.7649 18.557 55.2682 20.8389C55.7716 23.1208 55.6374 25.9732 54.5971 28.5235C53.5568 31.0738 51.577 33.3221 50.2682 34.7651C48.9595 36.2081 48.3219 36.8792 47.9528 37.4161C47.6172 37.9195 47.5501 38.2886 47.5165 38.4899C47.483 38.6577 47.483 38.6577 47.483 38.2886C47.4494 37.9195 47.4159 37.1477 47.5837 36.3423C47.7179 35.5369 48.0535 34.698 48.1877 34.2953C48.3555 33.8591 48.3555 33.8591 47.6508 34.3624C46.9461 34.8658 45.5031 35.8389 44.3286 36.8792C43.1541 37.9195 42.2145 38.9933 41.6441 40C41.0736 40.9732 40.8387 41.8456 40.738 42.2819C40.6373 42.7181 40.6374 42.7181 40.6374 42.1141C40.6709 41.4765 40.7045 40.2349 40.9729 38.9933C41.2749 37.7181 41.8118 36.443 42.9192 35.0671C44.0266 33.6913 45.6709 32.1812 46.8454 30.8725C48.0535 29.5638 48.7917 28.3893 49.228 27.5168C49.6978 26.6443 49.8655 26.1074 49.8991 25.5705C49.9327 25.0671 49.8655 24.5638 49.7984 24.3289C49.7649 24.094 49.7649 24.094 49.9998 24.4631C50.2347 24.8322 50.7716 25.5705 50.9729 26.3423C51.2078 27.1141 51.1072 27.953 51.0736 28.3557C51.04 28.7584 51.04 28.7584 51.2414 28.255C51.4763 27.7517 51.9125 26.745 52.0467 25.6376C52.181 24.5302 52.0132 23.3557 51.7447 22.4497C51.4763 21.5772 51.1407 21.0067 51.0065 20.7383C50.8387 20.4698 50.8387 20.4698 50.6374 20.7047C50.436 20.9732 49.9998 21.5101 49.5971 21.9463C49.1944 22.3826 48.7917 22.7517 48.6239 22.9195C48.4226 23.0873 48.4226 23.0873 48.5568 22.6175C48.691 22.1477 48.9931 21.2081 49.0266 20.1678C49.0602 19.094 48.8588 17.9195 48.4226 17.1141C48.0199 16.3087 47.3823 15.8725 47.0803 15.6711C46.7783 15.4698 46.7783 15.4698 47.1139 15.4698H48.4226C48.7582 15.4698 48.7582 15.4698 48.3219 15.3356C47.9192 15.2013 47.0803 14.8993 46.2414 14.8658C45.4025 14.8322 44.53 15.1007 43.9931 15.3356C43.4561 15.604 43.1877 15.8389 43.087 15.9732C42.9528 16.1074 42.9528 16.1074 43.1206 16.3087C43.2548 16.5101 43.5568 16.9463 43.691 17.1476L43.8253 17.349L43.9595 17.1812C44.0937 17.0134 44.3957 16.6443 44.8655 16.5101C45.3689 16.4094 46.0736 16.5436 46.6105 16.9128C47.181 17.3154 47.5837 17.9195 47.785 18.255C47.9863 18.5571 47.9528 18.5571 47.6172 18.4564C47.2816 18.3222 46.6105 18.0873 46.3085 17.953C45.9729 17.8188 45.9729 17.8188 46.1071 18.2886C46.2414 18.7584 46.5098 19.698 46.5098 20.7047C46.5098 21.7114 46.2078 22.7852 45.6709 23.7584C45.134 24.7315 44.3286 25.5369 43.389 26.1409C42.4494 26.745 41.4092 27.1477 40.8723 27.349C40.3353 27.5503 40.3353 27.5503 40.6038 27.3154C40.9394 27.1477 41.4427 26.7114 42.1474 25.906Z" fill="black"/>
<path fill-rule="evenodd" clip-rule="evenodd" d="M37.1141 19.1946C36.6443 19.161 35.7718 19.0939 35.2349 19.0939C34.6644 19.0939 34.396 19.1275 34.0268 19.2953C33.6913 19.4631 33.255 19.7651 32.4832 20.3355C31.7114 20.9396 30.6376 21.8456 30.0671 22.2819C29.5302 22.7517 29.5638 22.7516 29.9329 22.5167C30.3356 22.2818 31.1074 21.8121 31.6107 21.4765C32.1477 21.1745 32.4161 21.0067 32.5839 20.9396C32.7181 20.8725 32.7181 20.8725 33.0537 20.8725C33.3557 20.8725 33.9933 20.906 34.5302 20.8725C35.0671 20.8053 35.5034 20.6711 35.9732 20.4362C36.443 20.1678 36.9463 19.7986 37.2819 19.5973C37.5839 19.3624 37.7181 19.3288 37.7181 19.2617C37.7517 19.2282 37.6174 19.2282 37.1141 19.1946Z" fill="black"/>
<path fill-rule="evenodd" clip-rule="evenodd" d="M41.8791 9.66449C42.9529 8.85912 44.5301 7.95309 46.8791 7.71819C49.2281 7.48329 52.3153 7.88597 54.463 8.65778C56.6442 9.42959 57.8858 10.6041 58.7918 11.6779C59.7314 12.7517 60.3355 13.7585 60.6375 14.2618C60.9395 14.7652 60.9395 14.7652 60.3355 14.3289C59.7314 13.8927 58.4898 13.0202 57.8522 12.584C57.2482 12.1477 57.2482 12.1477 57.7516 13.0538C58.2549 13.9598 59.2616 15.7719 59.7985 17.3826C60.3355 18.9934 60.369 20.4028 60.1677 21.8122C59.9663 23.188 59.4965 24.5303 59.2616 25.2014C59.0267 25.8725 59.0267 25.8726 59.463 25.4363C59.8992 25.0001 60.7381 24.1611 61.2415 22.9195C61.7449 21.6779 61.9126 20.0001 61.9798 19.1947C62.0469 18.3558 62.0469 18.3558 62.114 19.094C62.1811 19.8323 62.2818 21.2752 62.1475 22.5504C62.0469 23.8256 61.7113 24.9665 61.0402 26.2417C60.369 27.4833 59.3623 28.8591 58.6912 30.0336C58.02 31.2081 57.718 32.1813 57.5838 32.6846C57.416 33.188 57.416 33.188 57.7516 32.6846C58.0871 32.1813 58.6912 31.2081 59.6643 30.1679C60.6375 29.1276 61.9797 28.0202 62.9193 26.141C63.8589 24.2618 64.3288 21.6779 64.1945 19.094C64.0603 16.5101 63.322 13.9262 62.114 11.8793C60.9059 9.83228 59.2281 8.32221 57.2146 7.34906C55.2012 6.40946 52.8187 6.00677 51.6442 5.80543C50.4697 5.60409 50.4697 5.60409 51.1408 5.46986C51.812 5.33563 53.1542 5.06718 54.6979 5.20141C56.2415 5.33564 57.9529 5.83898 59.3288 6.57724C60.671 7.31549 61.6777 8.22154 62.1475 8.69134C62.6509 9.16114 62.6509 9.16113 62.2146 8.59066C61.7784 8.02019 60.9059 6.87926 59.7314 5.97322C58.5569 5.03362 57.114 4.32892 55.3355 3.92623C53.5234 3.52355 51.3757 3.49 49.2952 3.85913C47.2146 4.22825 45.2683 5.03362 43.8254 6.00678C42.3824 6.97993 41.4093 8.12087 40.8053 9.12758C40.2012 10.1343 39.9663 11.0068 39.8657 11.443C39.765 11.8793 39.765 11.8793 40.0334 11.5437C40.2012 11.141 40.8053 10.4699 41.8791 9.66449Z" fill="black"/>
<path fill-rule="evenodd" clip-rule="evenodd" d="M54.4969 2.51678C67.9533 4.26175 78.356 15.7718 78.356 29.698C78.356 44.8322 66.0741 57.1141 50.9399 57.1141C43.96 57.1141 37.6177 54.4967 32.752 50.2349C34.3291 51.4765 36.0405 52.5504 37.8862 53.4228V44.7651H44.1614V55.5034C45.3358 55.7383 46.5439 55.9061 47.752 55.9732V39.8993H54.0271V55.6376C55.2687 55.4363 56.4432 55.1343 57.6177 54.7651V34.4295H63.8929V51.8457C65.1681 51.0403 66.3761 50.1342 67.4835 49.1275V23.9262H73.7587V40.8054C75.4701 37.2483 76.4432 33.255 76.4432 29.0604C76.5104 15.8725 67.0137 4.86578 54.4969 2.51678Z" fill="#F08A62"/>
<path fill-rule="evenodd" clip-rule="evenodd" d="M3.59061 68.9933C3.59061 68.8255 3.55705 68.6913 3.45638 68.5906C3.38926 68.4899 3.25504 68.4228 3.08725 68.4228H2.8188C2.65101 68.4228 2.51678 68.4899 2.44967 68.5906C2.38255 68.6913 2.31544 68.8255 2.31544 68.9933V74.698C2.31544 74.8658 2.34899 75 2.44967 75.1007C2.51678 75.2013 2.65101 75.2685 2.8188 75.2685H3.08725C3.25504 75.2685 3.38926 75.2013 3.45638 75.1007C3.52349 75 3.59061 74.8658 3.59061 74.698V72.8188L5.87248 71.5772V75.7383C5.87248 76.1409 5.77182 76.4429 5.60403 76.6443C5.43625 76.8456 5.13423 76.9463 4.73155 76.9463H1.14094C0.738258 76.9463 0.436243 76.8456 0.268457 76.6443C0.100672 76.4429 0 76.1409 0 75.7383V67.8859C0 67.4832 0.100672 67.1812 0.268457 66.9799C0.436243 66.7785 0.738258 66.6779 1.14094 66.6779H4.73155C5.13423 66.6779 5.43625 66.7785 5.60403 66.9799C5.77182 67.1812 5.87248 67.4832 5.87248 67.8859V70.4698L3.59061 71.7114V68.9933Z" fill="black"/>
<path fill-rule="evenodd" clip-rule="evenodd" d="M13.1205 76.1745L13.6574 76.9799H10.201L10.6373 76.1745L10.5366 75.2349H9.16076L9.06009 76.1745L9.49633 76.9799H6.14062L6.71109 76.1745L8.22116 66.745H11.6104L13.1205 76.1745ZM9.32855 73.4899H10.3688L9.86546 68.792L9.32855 73.4899Z" fill="black"/>
<path fill-rule="evenodd" clip-rule="evenodd" d="M17.1814 73.6913C17.1143 73.3893 17.0472 73.1208 16.9465 72.953C16.8459 72.7852 16.6781 72.6846 16.4096 72.6846V76.1409L16.8794 76.9463H13.5908L14.0606 76.1409V67.5503L13.5908 66.745H18.8257C19.2284 66.745 19.5304 66.8456 19.6982 67.047C19.866 67.2483 19.9667 67.5503 19.9667 67.953V71.3087C19.9667 72.047 19.6982 72.4832 19.1949 72.651L20.168 76.2081L20.8056 77.0134H17.3828L17.7183 76.2081L17.1814 73.6913ZM17.6177 69.2282C17.6177 68.9933 17.5506 68.8255 17.4499 68.6577C17.3492 68.5235 17.1814 68.4228 16.9465 68.4228H16.4096V71.0067H16.9465C17.1814 71.0067 17.3492 70.9396 17.4499 70.7718C17.5506 70.6376 17.6177 70.4363 17.6177 70.2014V69.2282Z" fill="black"/>
<path fill-rule="evenodd" clip-rule="evenodd" d="M20.8389 66.745H24.3288L24.1275 67.5503L25.2013 71.8792V67.5503L24.7315 66.745H27.8187L27.3489 67.5503V76.9799H25.0335L23.4899 71.0738V76.1745L23.9597 76.9799H20.8389L21.3087 76.1745V67.5503L20.8389 66.745Z" fill="black"/>
<path fill-rule="evenodd" clip-rule="evenodd" d="M31.3755 76.9799H28.0869L28.5567 76.1745V67.5503L28.0869 66.745H31.3755L30.9057 67.5503V76.1745L31.3755 76.9799Z" fill="black"/>
<path fill-rule="evenodd" clip-rule="evenodd" d="M33.3217 76.9799L31.8452 67.5503L31.3418 66.745H34.7646L34.3284 67.5503L35.0666 74.6309L35.7713 67.5503L35.3351 66.745H38.6908L38.1539 67.5503L36.6774 76.9799H33.3217Z" fill="black"/>
<path fill-rule="evenodd" clip-rule="evenodd" d="M43.7922 66.745C44.1949 66.745 44.4969 66.8456 44.6647 67.047C44.8324 67.2483 44.9331 67.5503 44.9331 67.953V75.8054C44.9331 76.2081 44.8324 76.5101 44.6647 76.7114C44.4969 76.9128 44.1949 77.0134 43.7922 77.0134H40.1009C39.6982 77.0134 39.3962 76.9128 39.2284 76.7114C39.0606 76.5101 38.96 76.2081 38.96 75.8054V67.953C38.96 67.5503 39.0606 67.2483 39.2284 67.047C39.3962 66.8456 39.6982 66.745 40.1009 66.745H43.7922ZM42.5841 68.9933C42.5841 68.8255 42.5506 68.6913 42.4499 68.5906C42.3828 68.4899 42.2485 68.4228 42.0808 68.4228H41.8123C41.6445 68.4228 41.5103 68.4899 41.4432 68.5906C41.3761 68.6913 41.309 68.8255 41.309 68.9933V74.698C41.309 74.8658 41.3425 75 41.4432 75.1007C41.5103 75.2014 41.6445 75.2685 41.8123 75.2685H42.0808C42.2485 75.2685 42.3828 75.2014 42.4499 75.1007C42.517 75 42.5841 74.8658 42.5841 74.698V68.9933Z" fill="black"/>
<path fill-rule="evenodd" clip-rule="evenodd" d="M49.1609 73.6913C49.0938 73.3893 49.0267 73.1208 48.926 72.953C48.8253 72.7852 48.6576 72.6846 48.3891 72.6846V76.1409L48.8589 76.9463H45.5703L46.0401 76.1409V67.5503L45.5703 66.745H50.8052C51.2079 66.745 51.5099 66.8456 51.6777 67.047C51.8455 67.2483 51.9462 67.5503 51.9462 67.953V71.3087C51.9462 72.047 51.6777 72.4832 51.1743 72.651L52.1475 76.2081L52.7851 77.0134H49.3623L49.6978 76.2081L49.1609 73.6913ZM49.5972 69.2282C49.5972 68.9933 49.53 68.8255 49.4294 68.6577C49.3287 68.5235 49.1609 68.4228 48.926 68.4228H48.3891V71.0067H48.926C49.1609 71.0067 49.3287 70.9396 49.4294 70.7718C49.53 70.6376 49.5972 70.4363 49.5972 70.2014V69.2282Z" fill="black"/>
<path fill-rule="evenodd" clip-rule="evenodd" d="M55.6372 71.0067H56.9459L57.7848 70.604V73.1208L56.9459 72.7181H55.6372V75.302H57.0466L58.6908 74.4631V76.9799H52.8184L53.2882 76.1745V67.5503L52.8184 66.745H58.6908V69.2617L57.0466 68.4228H55.6372V71.0067Z" fill="black"/>
<path fill-rule="evenodd" clip-rule="evenodd" d="M65.7381 69.396L64.0602 68.3222H63.9595V76.1745L64.4293 76.9799H61.1408L61.6106 76.1745V68.3222H61.5099L59.832 69.396V66.745H65.7381V69.396Z" fill="#F08A62"/>
<path fill-rule="evenodd" clip-rule="evenodd" d="M69.5633 73.6913C69.4962 73.3893 69.429 73.1208 69.3284 72.953C69.2277 72.7852 69.0599 72.6846 68.7914 72.6846V76.1409L69.2612 76.9463H65.9727L66.4425 76.1409V67.5503L65.9727 66.745H71.2076C71.6102 66.745 71.9123 66.8456 72.08 67.047C72.2478 67.2483 72.3485 67.5503 72.3485 67.953V71.3087C72.3485 72.047 72.08 72.4832 71.5767 72.651L72.5498 76.2081L73.1874 77.0134H69.7646L70.1002 76.2081L69.5633 73.6913ZM69.9995 69.2282C69.9995 68.9933 69.9324 68.8255 69.8317 68.6577C69.731 68.5235 69.5633 68.4228 69.3284 68.4228H68.7914V71.0067H69.3284C69.5633 71.0067 69.731 70.9396 69.8317 70.7718C69.9324 70.6376 69.9995 70.4363 69.9995 70.2014V69.2282Z" fill="#F08A62"/>
<path fill-rule="evenodd" clip-rule="evenodd" d="M79.8998 76.1745L80.4367 76.9799H76.9803L77.4166 76.1745L77.3159 75.2349H75.9401L75.8394 76.1745L76.2756 76.9799H72.9199L73.4904 76.1745L75.0005 66.745H78.3897L79.8998 76.1745ZM76.1078 73.4899H77.1481L76.6447 68.792L76.1078 73.4899Z" fill="#F08A62"/>
<path fill-rule="evenodd" clip-rule="evenodd" d="M80.3691 66.745H85.604C86.0067 66.745 86.3087 66.8456 86.4765 67.047C86.6443 67.2483 86.745 67.5503 86.745 67.953V75.8054C86.745 76.2081 86.6443 76.5101 86.4765 76.7114C86.3087 76.9128 86.0067 77.0134 85.604 77.0134H80.3691L80.8389 76.2081V67.5503L80.3691 66.745ZM84.396 69.2282C84.396 68.9933 84.3289 68.8255 84.2282 68.6577C84.1275 68.5235 83.9597 68.4228 83.7248 68.4228H83.1879V75.2685H83.7248C83.9597 75.2685 84.1275 75.2013 84.2282 75.0336C84.3289 74.8993 84.396 74.698 84.396 74.4631V69.2282Z" fill="#F08A62"/>
<path fill-rule="evenodd" clip-rule="evenodd" d="M90.6714 76.9799H87.3828L87.8526 76.1745V67.5503L87.3828 66.745H90.6714L90.2016 67.5503V76.1745L90.6714 76.9799Z" fill="#F08A62"/>
<path fill-rule="evenodd" clip-rule="evenodd" d="M90.9395 66.745H94.4294L94.2281 67.5503L95.3019 71.8792V67.5503L94.8321 66.745H97.9193L97.4495 67.5503V76.9799H95.1341L93.5905 71.0738V76.1745L94.0267 76.9799H90.9395L91.4092 76.1745V67.5503L90.9395 66.745Z" fill="#F08A62"/>
<path fill-rule="evenodd" clip-rule="evenodd" d="M102.248 68.9934C102.248 68.8256 102.214 68.6913 102.114 68.5907C102.047 68.49 101.912 68.4229 101.745 68.4229H101.409C101.241 68.4229 101.107 68.49 101.04 68.5907C100.973 68.6913 100.906 68.8256 100.906 68.9934V74.6981C100.906 74.8658 100.939 75.0001 101.04 75.1008C101.107 75.2014 101.241 75.2685 101.409 75.2685H101.677C101.845 75.2685 101.979 75.2014 102.047 75.1008C102.114 75.0001 102.181 74.8658 102.181 74.6981V72.6511L101.711 71.8457H105L104.53 72.6511V75.7719C104.53 76.1746 104.429 76.4766 104.261 76.6779C104.094 76.8793 103.792 76.9799 103.389 76.9799H99.6976C99.2949 76.9799 98.9929 76.8793 98.8251 76.6779C98.6573 76.4766 98.5566 76.1746 98.5566 75.7719V67.9195C98.5566 67.5168 98.6573 67.2149 98.8251 67.0135C98.9929 66.8122 99.2949 66.7115 99.6976 66.7115H103.389C103.792 66.7115 104.094 66.8122 104.261 67.0135C104.429 67.2149 104.53 67.5168 104.53 67.9195V71.4095L102.248 70.1679V68.9934Z" fill="#F08A62"/>
<path fill-rule="evenodd" clip-rule="evenodd" d="M3.32181 80.9732C3.32181 80.8054 3.28825 80.7048 3.25469 80.6377C3.22114 80.5705 3.15402 80.5034 3.08691 80.5034C3.15402 80.4363 3.22114 80.3692 3.25469 80.3021C3.28825 80.2014 3.28825 80.1007 3.28825 79.9665V79.7987C3.28825 79.6645 3.25469 79.5303 3.22113 79.4296C3.18758 79.3289 3.12046 79.2282 3.05335 79.1611C2.98624 79.094 2.88557 79.0605 2.75134 79.0269C2.61711 78.9934 2.48288 78.9933 2.31509 78.9933H0.402344V81.5772H1.00637V80.8054H2.21442C2.34865 80.8054 2.44932 80.839 2.51643 80.9061C2.58355 80.9732 2.61711 81.0739 2.61711 81.1746V81.5772H3.22113V80.9732H3.32181ZM2.68422 79.8658C2.68422 79.9665 2.65066 80.0336 2.61711 80.0672C2.58355 80.1007 2.48288 80.1343 2.38221 80.1343H1.03993V79.5638H2.34865C2.44932 79.5638 2.55 79.5974 2.58355 79.6309C2.61711 79.6645 2.65067 79.7316 2.65067 79.8323V79.8658H2.68422Z" fill="#F08A62"/>
<path fill-rule="evenodd" clip-rule="evenodd" d="M3.79199 78.9262V81.5101H6.40944V81.0067H4.39602V80.4362H6.34233V79.9329H4.39602V79.4631H6.40944V78.9262H3.79199Z" fill="#F08A62"/>
<path fill-rule="evenodd" clip-rule="evenodd" d="M7.98681 78.9262L6.64453 81.5101H7.34923L7.65124 80.906H9.19487L9.49688 81.5101H10.2351L8.89285 78.9262H7.98681ZM8.49017 79.4295L8.99353 80.3691H7.95326L8.49017 79.4295Z" fill="#F08A62"/>
<path fill-rule="evenodd" clip-rule="evenodd" d="M10.4697 78.9262V81.5101H12.6845V81.0067H11.1073V78.9262H10.4697Z" fill="#F08A62"/>
<path fill-rule="evenodd" clip-rule="evenodd" d="M17.7179 78.9262H14.9326V79.4631H16.0064V81.5101H16.6105V79.4631H17.7179V78.9262Z" fill="#F08A62"/>
<path fill-rule="evenodd" clip-rule="evenodd" d="M20.8726 80.9732C20.8726 80.8054 20.839 80.7048 20.8055 80.6377C20.7719 80.5705 20.7048 80.5034 20.6377 80.5034C20.7048 80.4363 20.7719 80.3692 20.8055 80.3021C20.839 80.2014 20.839 80.1007 20.839 79.9665V79.7987C20.839 79.6645 20.8055 79.5303 20.7719 79.4296C20.7384 79.3289 20.6712 79.2282 20.6041 79.1611C20.537 79.094 20.4363 79.0605 20.3021 79.0269C20.1679 78.9934 20.0337 78.9933 19.8659 78.9933H17.9531V81.5772H18.5572V80.8054H19.7652C19.8994 80.8054 20.0001 80.839 20.0672 80.9061C20.1343 80.9732 20.1679 81.0739 20.1679 81.1746V81.5772H20.7719V80.9732H20.8726ZM20.235 79.8658C20.235 79.9665 20.2014 80.0336 20.1679 80.0672C20.1343 80.1007 20.0337 80.1343 19.933 80.1343H18.5907V79.5638H19.8994C20.0001 79.5638 20.1008 79.5974 20.1343 79.6309C20.1679 79.6645 20.2015 79.7316 20.2015 79.8323V79.8658H20.235Z" fill="#F08A62"/>
<path fill-rule="evenodd" clip-rule="evenodd" d="M22.4497 78.9262L21.1074 81.5101H21.8121L22.1141 80.906H23.6578L23.9598 81.5101H24.698L23.3557 78.9262H22.4497ZM22.9531 79.4295L23.4564 80.3691H22.4161L22.9531 79.4295Z" fill="#F08A62"/>
<path fill-rule="evenodd" clip-rule="evenodd" d="M26.6782 81.0067H25.5708V79.4631H26.6782C26.7789 79.4631 26.8795 79.4631 26.9467 79.4966C27.0138 79.5302 27.0809 79.5638 27.1144 79.5973C27.148 79.6309 27.1816 79.698 27.2151 79.7651C27.2151 79.8322 27.2487 79.9329 27.2487 80.0336V80.4698C27.2487 80.5705 27.2487 80.6711 27.2151 80.7382C27.2151 80.8054 27.1816 80.8725 27.1144 80.906C27.0809 80.9396 27.0138 80.9731 26.9467 81.0067C26.8795 80.9731 26.7789 81.0067 26.6782 81.0067ZM26.7789 78.9262H24.9668V81.5101H26.846C27.0473 81.5101 27.2151 81.5101 27.3493 81.4765C27.4836 81.4429 27.5842 81.3758 27.6514 81.3087C27.7185 81.2416 27.7856 81.1074 27.8191 80.9732C27.8527 80.8389 27.8527 80.6711 27.8527 80.4698V79.9664C27.8527 79.7651 27.8191 79.6309 27.7856 79.4966C27.752 79.3624 27.6849 79.2617 27.6178 79.1946C27.5507 79.1275 27.4165 79.0604 27.2822 79.0268C27.148 78.9597 26.9802 78.9262 26.7789 78.9262Z" fill="#F08A62"/>
<path fill-rule="evenodd" clip-rule="evenodd" d="M28.1875 78.9262V81.5101H30.805V81.0067H28.7915V80.4362H30.7714V79.9329H28.7915V79.4631H30.805V78.9262H28.1875Z" fill="#F08A62"/>
<path fill-rule="evenodd" clip-rule="evenodd" d="M34.1275 80.9732C34.1275 80.8054 34.0939 80.7048 34.0604 80.6377C34.0268 80.5705 33.9597 80.5034 33.8926 80.5034C33.9597 80.4363 34.0268 80.3692 34.0604 80.3021C34.0939 80.2014 34.0939 80.1007 34.0939 79.9665V79.7987C34.0939 79.6645 34.0604 79.5303 34.0268 79.4296C33.9932 79.3289 33.9261 79.2282 33.859 79.1611C33.7919 79.094 33.6912 79.0605 33.557 79.0269C33.4228 78.9934 33.2885 78.9933 33.1208 78.9933H31.208V81.5772H31.812V80.8054H33.0201C33.1543 80.8054 33.255 80.839 33.3221 80.9061C33.3892 80.9732 33.4228 81.0739 33.4228 81.1746V81.5772H34.0268V80.9732H34.1275ZM33.4899 79.8658C33.4899 79.9665 33.4563 80.0336 33.4228 80.0672C33.3892 80.1007 33.2885 80.1343 33.1879 80.1343H31.8456V79.5638H33.1543C33.255 79.5638 33.3557 79.5974 33.3892 79.6309C33.4228 79.6645 33.4563 79.7316 33.4563 79.8323V79.8658H33.4899Z" fill="#F08A62"/>
<path fill-rule="evenodd" clip-rule="evenodd" d="M35.4022 78.9262C35.2344 78.9262 35.1002 78.9262 34.966 78.9597C34.8318 78.9933 34.7646 79.0268 34.664 79.094C34.5969 79.1611 34.5297 79.2282 34.4962 79.3288C34.4626 79.4295 34.4291 79.5302 34.4291 79.6644C34.4291 79.8322 34.4291 79.9664 34.4626 80.0336C34.4962 80.1342 34.5633 80.2013 34.6304 80.2349C34.6975 80.2684 34.7982 80.302 34.9324 80.3356C35.0667 80.3691 35.2009 80.3691 35.3687 80.3691L36.3418 80.4027C36.4425 80.4027 36.5096 80.4027 36.5432 80.4362C36.6103 80.4362 36.6438 80.4698 36.6774 80.5033C36.711 80.5369 36.7445 80.5705 36.7445 80.604C36.7445 80.6376 36.7781 80.6711 36.7781 80.7382C36.7781 80.8389 36.7445 80.906 36.6774 80.9396C36.6103 80.9732 36.5096 81.0067 36.3754 81.0067H35.3351C35.2344 81.0067 35.1673 80.9732 35.1338 80.9396C35.0667 80.906 35.0331 80.8389 35.0331 80.7718H34.3955C34.3955 80.906 34.3955 81.0067 34.4291 81.1074C34.4626 81.2081 34.4962 81.2752 34.5633 81.3423C34.6304 81.4094 34.7311 81.4429 34.8318 81.4765C34.9324 81.5101 35.0666 81.5101 35.2344 81.5101H36.5096C36.6774 81.5101 36.8116 81.5101 36.9123 81.4765C37.013 81.4429 37.1136 81.4094 37.1807 81.3423C37.2479 81.2752 37.2814 81.2081 37.315 81.1074C37.3485 81.0067 37.3485 80.906 37.3485 80.7382C37.3485 80.5705 37.315 80.4362 37.2814 80.3356C37.2479 80.2349 37.1807 80.1678 37.1136 80.1007C37.0465 80.0336 36.9459 80 36.8452 80C36.7445 79.9664 36.6103 79.9664 36.476 79.9664L35.3351 79.9329C35.3016 79.9329 35.2344 79.9329 35.2009 79.9329C35.1673 79.9329 35.1338 79.9329 35.1002 79.8993C35.0667 79.8993 35.0667 79.8658 35.0331 79.8322C35.0331 79.7986 34.9995 79.7651 34.9995 79.698C34.9995 79.5973 35.0331 79.5302 35.1002 79.4966C35.1673 79.4631 35.2344 79.4631 35.3016 79.4631H36.3418C36.4089 79.4631 36.4425 79.4631 36.5096 79.4631C36.5432 79.4631 36.5767 79.4966 36.6103 79.4966C36.6438 79.5302 36.6438 79.5302 36.6438 79.5637C36.6438 79.5973 36.6438 79.6309 36.6438 79.6644H37.315C37.315 79.4295 37.2479 79.2282 37.0801 79.1275C36.9123 78.9933 36.6774 78.9597 36.3754 78.9597H35.4022V78.9262Z" fill="#F08A62"/>
<path fill-rule="evenodd" clip-rule="evenodd" d="M45.772 80.9732C45.772 80.8054 45.7384 80.7048 45.7049 80.6377C45.6713 80.5705 45.6042 80.5034 45.5371 80.5034C45.6042 80.4363 45.6713 80.3692 45.7049 80.3021C45.7384 80.2014 45.7384 80.1007 45.7384 79.9665V79.7987C45.7384 79.6645 45.7049 79.5303 45.6713 79.4296C45.6378 79.3289 45.5707 79.2282 45.5035 79.1611C45.4364 79.094 45.3358 79.0605 45.2015 79.0269C45.0673 78.9934 44.9331 78.9933 44.7653 78.9933H42.8525V81.5772H43.4566V80.8054H44.6646C44.7988 80.8054 44.8995 80.839 44.9666 80.9061C45.0337 80.9732 45.0673 81.0739 45.0673 81.1746V81.5772H45.6713V80.9732H45.772ZM45.1344 79.8658C45.1344 79.9665 45.1009 80.0336 45.0673 80.0672C45.0337 80.1007 44.9331 80.1343 44.8324 80.1343H43.4901V79.5638H44.7988C44.8995 79.5638 45.0002 79.5974 45.0337 79.6309C45.0673 79.6645 45.1009 79.7316 45.1009 79.8323V79.8658H45.1344Z" fill="#F08A62"/>
<path fill-rule="evenodd" clip-rule="evenodd" d="M46.2412 78.9262V81.5101H48.8587V81.0067H46.8452V80.4362H48.7915V79.9329H46.8452V79.4631H48.8587V78.9262H46.2412Z" fill="#F08A62"/>
<path fill-rule="evenodd" clip-rule="evenodd" d="M50.436 78.9262L49.0938 81.5101H49.7984L50.1005 80.906H51.6441L51.9461 81.5101H52.6843L51.3421 78.9262H50.436ZM50.9394 79.4295L51.4427 80.3691H50.4025L50.9394 79.4295Z" fill="#F08A62"/>
<path fill-rule="evenodd" clip-rule="evenodd" d="M52.9199 78.9262V81.5101H55.1347V81.0067H53.5575V78.9262H52.9199Z" fill="#F08A62"/>
<path fill-rule="evenodd" clip-rule="evenodd" d="M60.1345 78.9262H57.3828V79.4631H58.4566V81.5101H59.0607V79.4631H60.1345V78.9262Z" fill="#F08A62"/>
<path fill-rule="evenodd" clip-rule="evenodd" d="M60.4697 78.9262V81.5101H63.1207V81.0067H61.1073V80.4362H63.0536V79.9329H61.1073V79.4631H63.1207V78.9262H60.4697Z" fill="#F08A62"/>
<path fill-rule="evenodd" clip-rule="evenodd" d="M64.2619 78.9262H63.5236L64.6981 80.1342L63.3223 81.5101H64.0941L65.1343 80.5033L66.1746 81.5101H66.9464L65.6041 80.1342L66.7451 78.9262H66.0404L65.1343 79.8322L64.2619 78.9262Z" fill="#F08A62"/>
<path fill-rule="evenodd" clip-rule="evenodd" d="M69.8327 78.9262H67.0811V79.4631H68.1549V81.5101H68.7589V79.4631H69.8327V78.9262Z" fill="#F08A62"/>
<path fill-rule="evenodd" clip-rule="evenodd" d="M71.0064 78.9262C70.8386 78.9262 70.7043 78.9262 70.5701 78.9597C70.4694 78.9933 70.3688 79.0268 70.2681 79.094C70.201 79.1611 70.1339 79.2282 70.1003 79.3288C70.0668 79.4295 70.0332 79.5302 70.0332 79.6644C70.0332 79.8322 70.0332 79.9664 70.0668 80.0336C70.1003 80.1342 70.1674 80.2013 70.2345 80.2349C70.3017 80.2684 70.4023 80.302 70.5366 80.3356C70.6708 80.3691 70.805 80.3691 70.9728 80.3691L71.9459 80.4027C72.0466 80.4027 72.1137 80.4027 72.1473 80.4362C72.2144 80.4362 72.248 80.4698 72.2815 80.5033C72.3151 80.5369 72.3486 80.5705 72.3486 80.604C72.3486 80.6376 72.3822 80.6711 72.3822 80.7382C72.3822 80.8389 72.3486 80.906 72.2815 80.9396C72.2144 80.9732 72.1137 81.0067 71.9795 81.0067H71.0064C70.9057 81.0067 70.8386 80.9732 70.805 80.9396C70.7379 80.906 70.7043 80.8389 70.7043 80.7718H70.0668C70.0668 80.906 70.0668 81.0067 70.1003 81.1074C70.1339 81.2081 70.1674 81.2752 70.2345 81.3423C70.3017 81.4094 70.4023 81.4429 70.503 81.4765C70.6037 81.5101 70.7379 81.5101 70.9057 81.5101H72.1809C72.3486 81.5101 72.4829 81.5101 72.5835 81.4765C72.6842 81.4429 72.7849 81.4094 72.852 81.3423C72.9191 81.2752 72.9527 81.2081 72.9862 81.1074C73.0198 81.0067 73.0198 80.906 73.0198 80.7382C73.0198 80.5705 72.9862 80.4362 72.9527 80.3356C72.9191 80.2349 72.852 80.1678 72.7849 80.1007C72.7178 80.0336 72.6171 80 72.5164 80C72.4158 79.9664 72.2815 79.9664 72.1473 79.9664L71.0064 79.9329C70.9728 79.9329 70.9057 79.9329 70.8721 79.9329C70.8386 79.9329 70.805 79.9329 70.7715 79.8993C70.7379 79.8993 70.7379 79.8658 70.7043 79.8322C70.7043 79.7986 70.6708 79.7651 70.6708 79.698C70.6708 79.5973 70.7043 79.5302 70.7715 79.4966C70.8386 79.4631 70.9057 79.4631 70.9728 79.4631H72.0131C72.0802 79.4631 72.1137 79.4631 72.1809 79.4631C72.2144 79.4631 72.248 79.4966 72.2815 79.4966C72.3151 79.5302 72.3151 79.5302 72.3151 79.5637C72.3151 79.5973 72.3151 79.6309 72.3151 79.6644H72.9862C72.9862 79.4295 72.9191 79.2282 72.7513 79.1275C72.5835 78.9933 72.3486 78.9597 72.0466 78.9597H71.0064V78.9262Z" fill="#F08A62"/>
<path fill-rule="evenodd" clip-rule="evenodd" d="M81.4429 80.9732C81.4429 80.8054 81.4093 80.7048 81.3758 80.6377C81.3422 80.5705 81.2751 80.5034 81.208 80.5034C81.2751 80.4363 81.3422 80.3692 81.3758 80.3021C81.4093 80.2014 81.4093 80.1007 81.4093 79.9665V79.7987C81.4093 79.6645 81.3758 79.5303 81.3422 79.4296C81.3087 79.3289 81.2416 79.2282 81.1744 79.1611C81.1073 79.094 81.0067 79.0605 80.8724 79.0269C80.7382 78.9934 80.604 78.9933 80.4362 78.9933H78.5234V81.5772H79.1275V80.8054H80.3355C80.4697 80.8054 80.5704 80.839 80.6375 80.9061C80.7047 80.9732 80.7382 81.0739 80.7382 81.1746V81.5772H81.3422V80.9732H81.4429ZM80.8053 79.8658C80.8053 79.9665 80.7718 80.0336 80.7382 80.0672C80.7046 80.1007 80.604 80.1343 80.5033 80.1343H79.161V79.5638H80.4698C80.5704 79.5638 80.6711 79.5974 80.7046 79.6309C80.7382 79.6645 80.7718 79.7316 80.7718 79.8323V79.8658H80.8053Z" fill="#F08A62"/>
<path fill-rule="evenodd" clip-rule="evenodd" d="M81.8789 78.9262V81.5101H84.5299V80.9732H82.5165V80.4362H84.4628V79.9329H82.5165V79.4295H84.5299V78.9262H81.8789Z" fill="#F08A62"/>
<path fill-rule="evenodd" clip-rule="evenodd" d="M86.0737 78.9262L84.7314 81.5101H85.4361L85.7382 80.906H87.2818L87.5838 81.5101H88.3221L86.9798 78.9262H86.0737ZM86.6106 79.4295L87.114 80.3691H86.0737L86.6106 79.4295Z" fill="#F08A62"/>
<path fill-rule="evenodd" clip-rule="evenodd" d="M88.5908 78.9262V81.5101H90.8056V80.9732H89.2284V78.9262H88.5908Z" fill="#F08A62"/>
<path fill-rule="evenodd" clip-rule="evenodd" d="M95.8057 78.9262H93.0205V79.4631H94.1279V81.5101H94.7319V79.4631H95.8057V78.9262Z" fill="#F08A62"/>
<path d="M96.8452 78.9262H96.2412V81.5101H96.8452V78.9262Z" fill="#F08A62"/>
<path fill-rule="evenodd" clip-rule="evenodd" d="M97.3828 78.9262V81.5101H97.9868V79.6309L99.0607 81.5101H99.7318L100.806 79.6309V81.5101H101.41V78.9262H100.504L99.3962 80.8389L98.3224 78.9262H97.3828Z" fill="#F08A62"/>
<path fill-rule="evenodd" clip-rule="evenodd" d="M101.879 78.9262V81.5101H104.496V80.9732H102.483V80.4362H104.429V79.9329H102.483V79.4295H104.496V78.9262H101.879Z" fill="#F08A62"/>
<path fill-rule="evenodd" clip-rule="evenodd" d="M39.9329 80.8725C40.302 80.8725 40.604 80.5705 40.604 80.2014C40.604 79.8322 40.302 79.5302 39.9329 79.5302C39.5637 79.5302 39.2617 79.8322 39.2617 80.2014C39.2617 80.5705 39.5637 80.8725 39.9329 80.8725Z" fill="#F08A62"/>
<path fill-rule="evenodd" clip-rule="evenodd" d="M75.7717 80.8725C76.1409 80.8725 76.4429 80.5705 76.4429 80.2014C76.4429 79.8322 76.1409 79.5302 75.7717 79.5302C75.4026 79.5302 75.1006 79.8322 75.1006 80.2014C75.1006 80.5705 75.4026 80.8725 75.7717 80.8725Z" fill="#F08A62"/>
</svg>
