<svg width="113" height="15" viewBox="0 0 113 15" fill="none" xmlns="http://www.w3.org/2000/svg">
<path d="M9.75 4.568C9.474 4.232 9.132 3.974 8.724 3.794C8.328 3.614 7.866 3.524 7.338 3.524C6.81 3.524 6.318 3.626 5.862 3.83C5.418 4.034 5.028 4.322 4.692 4.694C4.368 5.054 4.11 5.486 3.918 5.99C3.738 6.494 3.648 7.04 3.648 7.628C3.648 8.228 3.738 8.78 3.918 9.284C4.11 9.776 4.368 10.208 4.692 10.58C5.016 10.94 5.394 11.222 5.826 11.426C6.27 11.63 6.744 11.732 7.248 11.732C7.824 11.732 8.334 11.612 8.778 11.372C9.222 11.132 9.588 10.796 9.876 10.364L12.216 12.11C11.676 12.866 10.992 13.424 10.164 13.784C9.336 14.144 8.484 14.324 7.608 14.324C6.612 14.324 5.694 14.168 4.854 13.856C4.014 13.544 3.288 13.1 2.676 12.524C2.064 11.936 1.584 11.228 1.236 10.4C0.899999 9.572 0.731999 8.648 0.731999 7.628C0.731999 6.608 0.899999 5.684 1.236 4.856C1.584 4.028 2.064 3.326 2.676 2.75C3.288 2.162 4.014 1.712 4.854 1.4C5.694 1.088 6.612 0.932 7.608 0.932C7.968 0.932 8.34 0.968 8.724 1.04C9.12 1.1 9.504 1.202 9.876 1.346C10.26 1.49 10.626 1.682 10.974 1.922C11.322 2.162 11.634 2.456 11.91 2.804L9.75 4.568ZM18.6523 1.256H20.9743L26.5183 14H23.3503L22.2523 11.3H17.3023L16.2403 14H13.1443L18.6523 1.256ZM19.7323 4.964L18.1843 8.924H21.2983L19.7323 4.964ZM28.5201 1.256H33.4521C34.1001 1.256 34.7121 1.322 35.2881 1.454C35.8761 1.574 36.3861 1.784 36.8181 2.084C37.2621 2.372 37.6101 2.768 37.8621 3.272C38.1261 3.764 38.2581 4.382 38.2581 5.126C38.2581 6.026 38.0241 6.794 37.5561 7.43C37.0881 8.054 36.4041 8.45 35.5041 8.618L38.7441 14H35.3781L32.7141 8.906H31.3281V14H28.5201V1.256ZM31.3281 6.53H32.9841C33.2361 6.53 33.5001 6.524 33.7761 6.512C34.0641 6.488 34.3221 6.434 34.5501 6.35C34.7781 6.254 34.9641 6.11 35.1081 5.918C35.2641 5.726 35.3421 5.456 35.3421 5.108C35.3421 4.784 35.2761 4.526 35.1441 4.334C35.0121 4.142 34.8441 3.998 34.6401 3.902C34.4361 3.794 34.2021 3.722 33.9381 3.686C33.6741 3.65 33.4161 3.632 33.1641 3.632H31.3281V6.53ZM40.9119 1.256H44.7279L50.1459 10.112H50.1819V1.256H52.9899V14H49.3179L43.7559 4.928H43.7199V14H40.9119V1.256ZM56.2737 1.256H59.0817V14H56.2737V1.256ZM61.0958 1.256H64.2998L67.4498 9.608H67.4858L70.6898 1.256H73.6958L68.4398 14H66.1898L61.0958 1.256ZM75.0657 7.628C75.0657 6.608 75.2337 5.684 75.5697 4.856C75.9177 4.028 76.3977 3.326 77.0097 2.75C77.6217 2.162 78.3477 1.712 79.1877 1.4C80.0277 1.088 80.9457 0.932 81.9417 0.932C82.9377 0.932 83.8557 1.088 84.6957 1.4C85.5357 1.712 86.2617 2.162 86.8737 2.75C87.4857 3.326 87.9597 4.028 88.2957 4.856C88.6437 5.684 88.8177 6.608 88.8177 7.628C88.8177 8.648 88.6437 9.572 88.2957 10.4C87.9597 11.228 87.4857 11.936 86.8737 12.524C86.2617 13.1 85.5357 13.544 84.6957 13.856C83.8557 14.168 82.9377 14.324 81.9417 14.324C80.9457 14.324 80.0277 14.168 79.1877 13.856C78.3477 13.544 77.6217 13.1 77.0097 12.524C76.3977 11.936 75.9177 11.228 75.5697 10.4C75.2337 9.572 75.0657 8.648 75.0657 7.628ZM77.9817 7.628C77.9817 8.228 78.0717 8.78 78.2517 9.284C78.4437 9.776 78.7137 10.208 79.0617 10.58C79.4097 10.94 79.8237 11.222 80.3037 11.426C80.7957 11.63 81.3417 11.732 81.9417 11.732C82.5417 11.732 83.0817 11.63 83.5617 11.426C84.0537 11.222 84.4737 10.94 84.8217 10.58C85.1697 10.208 85.4337 9.776 85.6137 9.284C85.8057 8.78 85.9017 8.228 85.9017 7.628C85.9017 7.04 85.8057 6.494 85.6137 5.99C85.4337 5.486 85.1697 5.054 84.8217 4.694C84.4737 4.322 84.0537 4.034 83.5617 3.83C83.0817 3.626 82.5417 3.524 81.9417 3.524C81.3417 3.524 80.7957 3.626 80.3037 3.83C79.8237 4.034 79.4097 4.322 79.0617 4.694C78.7137 5.054 78.4437 5.486 78.2517 5.99C78.0717 6.494 77.9817 7.04 77.9817 7.628ZM91.4462 1.256H96.3782C97.0262 1.256 97.6382 1.322 98.2142 1.454C98.8022 1.574 99.3122 1.784 99.7442 2.084C100.188 2.372 100.536 2.768 100.788 3.272C101.052 3.764 101.184 4.382 101.184 5.126C101.184 6.026 100.95 6.794 100.482 7.43C100.014 8.054 99.3302 8.45 98.4302 8.618L101.67 14H98.3042L95.6402 8.906H94.2542V14H91.4462V1.256ZM94.2542 6.53H95.9102C96.1622 6.53 96.4262 6.524 96.7022 6.512C96.9902 6.488 97.2482 6.434 97.4762 6.35C97.7042 6.254 97.8902 6.11 98.0342 5.918C98.1902 5.726 98.2682 5.456 98.2682 5.108C98.2682 4.784 98.2022 4.526 98.0702 4.334C97.9382 4.142 97.7702 3.998 97.5662 3.902C97.3622 3.794 97.1282 3.722 96.8642 3.686C96.6002 3.65 96.3422 3.632 96.0902 3.632H94.2542V6.53ZM103.946 1.256H112.604V3.848H106.754V6.224H112.28V8.816H106.754V11.408H112.928V14H103.946V1.256Z" fill="#1E1F21"/>
</svg>
