<svg width="31" height="31" viewBox="0 0 31 31" fill="none" xmlns="http://www.w3.org/2000/svg">
<path d="M17.3209 15.4999L22.8751 9.95866C23.1183 9.71544 23.255 9.38555 23.255 9.04158C23.255 8.69761 23.1183 8.36772 22.8751 8.1245C22.6319 7.88127 22.302 7.74463 21.958 7.74463C21.614 7.74463 21.2842 7.88127 21.0409 8.1245L15.4997 13.6787L9.95843 8.1245C9.7152 7.88127 9.38532 7.74463 9.04134 7.74463C8.69737 7.74463 8.36749 7.88127 8.12426 8.1245C7.88103 8.36772 7.74439 8.69761 7.74439 9.04158C7.74439 9.38555 7.88103 9.71544 8.12426 9.95866L13.6784 15.4999L8.12426 21.0412C8.00319 21.1612 7.9071 21.3041 7.84153 21.4615C7.77595 21.6189 7.74219 21.7877 7.74219 21.9582C7.74219 22.1288 7.77595 22.2976 7.84153 22.455C7.9071 22.6124 8.00319 22.7553 8.12426 22.8753C8.24434 22.9964 8.3872 23.0925 8.5446 23.1581C8.702 23.2236 8.87083 23.2574 9.04134 23.2574C9.21186 23.2574 9.38069 23.2236 9.53809 23.1581C9.69549 23.0925 9.83835 22.9964 9.95843 22.8753L15.4997 17.3212L21.0409 22.8753C21.161 22.9964 21.3039 23.0925 21.4613 23.1581C21.6187 23.2236 21.7875 23.2574 21.958 23.2574C22.1285 23.2574 22.2974 23.2236 22.4548 23.1581C22.6122 23.0925 22.755 22.9964 22.8751 22.8753C22.9962 22.7553 23.0923 22.6124 23.1578 22.455C23.2234 22.2976 23.2572 22.1288 23.2572 21.9582C23.2572 21.7877 23.2234 21.6189 23.1578 21.4615C23.0923 21.3041 22.9962 21.1612 22.8751 21.0412L17.3209 15.4999Z" fill="#D9D8D8"/>
</svg>
