<svg width="20" height="20" viewBox="0 0 20 20" fill="none" xmlns="http://www.w3.org/2000/svg">
<path d="M10.0001 11.1377C4.59182 11.1377 1.61328 13.6963 1.61328 18.3423C1.61328 18.7052 1.90736 18.9993 2.27021 18.9993H17.73C18.0929 18.9993 18.387 18.7052 18.387 18.3423C18.387 13.6966 15.4085 11.1377 10.0001 11.1377ZM2.95105 17.6854C3.20944 14.2116 5.57767 12.4516 10.0001 12.4516C14.4226 12.4516 16.7909 14.2116 17.0495 17.6854H2.95105Z" fill="black"/>
<path d="M10.0003 1C7.51594 1 5.64258 2.91102 5.64258 5.44504C5.64258 8.05328 7.59743 10.175 10.0003 10.175C12.4032 10.175 14.358 8.05328 14.358 5.44526C14.358 2.91102 12.4846 1 10.0003 1ZM10.0003 8.86131C8.3218 8.86131 6.95646 7.32889 6.95646 5.44526C6.95646 3.63081 8.23662 2.31386 10.0003 2.31386C11.7357 2.31386 13.0441 3.65992 13.0441 5.44526C13.0441 7.32889 11.6788 8.86131 10.0003 8.86131Z" fill="black"/>
</svg>
