<svg width="20" height="18" viewBox="0 0 20 18" fill="none" xmlns="http://www.w3.org/2000/svg">
<path d="M19.6872 3.11604C19.4189 2.78409 19.0202 2.59374 18.5933 2.59374H3.34908L3.21295 1.61812C3.11654 0.927263 2.5178 0.40625 1.82018 0.40625H0.624996C0.279842 0.40625 0 0.686092 0 1.03125C0 1.3764 0.279842 1.65624 0.624996 1.65624H1.82018C1.89768 1.65624 1.96425 1.71413 1.97491 1.79089L3.66197 13.8818C3.75838 14.5727 4.35712 15.0937 5.05474 15.0937H5.73243C5.66305 15.2893 5.62493 15.4996 5.62493 15.7187C5.62493 16.7525 6.46606 17.5937 7.49992 17.5937C8.53378 17.5937 9.37491 16.7525 9.37491 15.7187C9.37491 15.4996 9.33678 15.2893 9.26741 15.0937H12.6074C12.538 15.2893 12.4999 15.4996 12.4999 15.7187C12.4999 16.7525 13.341 17.5937 14.3749 17.5937C15.4087 17.5937 16.2499 16.7525 16.2499 15.7187C16.2499 15.4996 16.2117 15.2893 16.1424 15.0937H17.4999C17.8451 15.0937 18.1249 14.8138 18.1249 14.4687C18.1249 14.1235 17.8451 13.8437 17.4999 13.8437H5.05478C4.97728 13.8437 4.91071 13.7858 4.90005 13.709L4.74443 12.5937H17.053C17.7115 12.5937 18.2899 12.1263 18.4282 11.482L19.9684 4.2947C20.0579 3.87748 19.9554 3.44787 19.6872 3.11604ZM8.12495 15.7187C8.12495 16.0633 7.84456 16.3437 7.49996 16.3437C7.15535 16.3437 6.87496 16.0633 6.87496 15.7187C6.87496 15.3741 7.15535 15.0937 7.49996 15.0937C7.84456 15.0937 8.12495 15.374 8.12495 15.7187ZM14.9999 15.7187C14.9999 16.0633 14.7195 16.3437 14.3749 16.3437C14.0303 16.3437 13.7499 16.0633 13.7499 15.7187C13.7499 15.3741 14.0303 15.0937 14.3749 15.0937C14.7195 15.0937 14.9999 15.374 14.9999 15.7187ZM18.7462 4.03267L17.206 11.2199C17.1906 11.2916 17.1263 11.3436 17.053 11.3436H4.56997L3.5235 3.84369H18.5933C18.6551 3.84369 18.6936 3.87525 18.715 3.90174C18.7364 3.92818 18.7591 3.97236 18.7462 4.03267Z" fill="black"/>
</svg>
