<svg width="42" height="50" viewBox="0 0 42 50" fill="none" xmlns="http://www.w3.org/2000/svg">
<path d="M37.3924 0H4.60764C2.4041 0 0.611328 1.79267 0.611328 3.99622V46.0036C0.611328 48.2071 2.4041 49.9999 4.60764 49.9999H37.3924C39.5959 49.9999 41.3887 48.2071 41.3887 46.0036V3.99622C41.3887 1.79267 39.5959 0 37.3924 0V0ZM39.9216 46.0036C39.9216 47.3983 38.787 48.5328 37.3924 48.5328H4.60764C3.21304 48.5328 2.0784 47.3982 2.0784 46.0036V3.99622C2.0784 2.60171 3.21304 1.46708 4.60764 1.46708H37.3924C38.787 1.46708 39.9216 2.60171 39.9216 3.99622V46.0036Z" fill="#F76041"/>
<path d="M37.2532 2.9342H11.5187C11.1136 2.9342 10.7852 3.26254 10.7852 3.66774C10.7852 4.07295 11.1136 4.40128 11.5187 4.40128H36.9876V38.5944H12.463C12.0579 38.5944 11.7295 38.9228 11.7295 39.328C11.7295 39.7332 12.0579 40.0615 12.463 40.0615H37.2532C37.9157 40.0615 38.4547 39.5225 38.4547 38.86V4.13574C38.4547 3.47321 37.9157 2.9342 37.2532 2.9342Z" fill="#F76041"/>
<path d="M9.33664 38.5944H5.01249V4.40128H8.39234C8.79745 4.40128 9.12587 4.07295 9.12587 3.66774C9.12587 3.26254 8.79745 2.9342 8.39234 2.9342H4.74695C4.08441 2.9342 3.54541 3.47321 3.54541 4.13574V38.86C3.54541 39.5225 4.08441 40.0615 4.74695 40.0615H9.33664C9.74175 40.0615 10.0702 39.7332 10.0702 39.328C10.0702 38.9228 9.74175 38.5944 9.33664 38.5944Z" fill="#F76041"/>
<path d="M33.9353 35.6601H32.1559C31.7507 35.6601 31.4223 35.9884 31.4223 36.3936C31.4223 36.7988 31.7507 37.1272 32.1559 37.1272H33.9353C34.7592 37.1272 35.4296 36.455 35.4296 35.629V27.7959C35.4296 26.9697 34.7592 26.2976 33.9353 26.2976H18.1232C17.2993 26.2976 16.6289 26.9697 16.6289 27.7959V35.629C16.6289 36.455 17.2993 37.1272 18.1232 37.1272H29.0297C29.4348 37.1272 29.7633 36.7988 29.7633 36.3936C29.7633 35.9884 29.4348 35.6601 29.0297 35.6601H18.1232C18.1101 35.6601 18.096 35.6482 18.096 35.629V27.7959C18.096 27.7766 18.1102 27.7647 18.1232 27.7647H33.9352C33.9483 27.7647 33.9624 27.7766 33.9624 27.7959V35.629C33.9625 35.6482 33.9484 35.6601 33.9353 35.6601Z" fill="#F76041"/>
<path d="M25.7261 41.7627H16.1763C15.4131 41.7627 14.792 42.3838 14.792 43.1469V45.3885C14.792 46.1518 15.4131 46.7728 16.1763 46.7728H25.7262C26.4895 46.7728 27.1105 46.1517 27.1105 45.3885V43.1469C27.1104 42.3838 26.4894 41.7627 25.7261 41.7627ZM25.6434 45.3058H16.2591V43.2298H25.6434V45.3058Z" fill="#F76041"/>
<path d="M16.5856 6.18018H7.95013C7.33738 6.18018 6.83887 6.67869 6.83887 7.29134V9.47014C6.83887 10.0829 7.33738 10.5813 7.95013 10.5813H10.0672V16.1894C10.0672 16.8021 10.5657 17.3005 11.1785 17.3005H13.3572C13.9699 17.3005 14.4684 16.802 14.4684 16.1894V10.5813H16.5856C17.1984 10.5813 17.6969 10.0828 17.6969 9.47014V7.29144C17.6969 6.67869 17.1984 6.18018 16.5856 6.18018ZM16.2298 9.11433H14.1126C13.4999 9.11433 13.0014 9.61284 13.0014 10.2255V15.8335H11.5343V10.2255C11.5343 9.61274 11.0358 9.11433 10.423 9.11433H8.30594V7.64725H16.2298V9.11433Z" fill="#F76041"/>
<path d="M20.5319 8.96061H34.6961C35.1012 8.96061 35.4296 8.63227 35.4296 8.22707C35.4296 7.82186 35.1012 7.49353 34.6961 7.49353H20.5319C20.1268 7.49353 19.7983 7.82186 19.7983 8.22707C19.7983 8.63227 20.1268 8.96061 20.5319 8.96061Z" fill="#F76041"/>
<path d="M20.5319 12.7215H34.6961C35.1012 12.7215 35.4296 12.3931 35.4296 11.9879C35.4296 11.5827 35.1012 11.2544 34.6961 11.2544H20.5319C20.1268 11.2544 19.7983 11.5827 19.7983 11.9879C19.7983 12.3931 20.1268 12.7215 20.5319 12.7215Z" fill="#F76041"/>
<path d="M17.063 15.7486C17.063 16.1538 17.3914 16.4821 17.7965 16.4821H34.696C35.1011 16.4821 35.4295 16.1538 35.4295 15.7486C35.4295 15.3433 35.1011 15.015 34.696 15.015H17.7965C17.3914 15.015 17.063 15.3434 17.063 15.7486Z" fill="#F76041"/>
<path d="M34.6959 18.7762H7.57241C7.1673 18.7762 6.83887 19.1046 6.83887 19.5098C6.83887 19.915 7.1673 20.2433 7.57241 20.2433H34.6959C35.101 20.2433 35.4294 19.915 35.4294 19.5098C35.4294 19.1046 35.101 18.7762 34.6959 18.7762Z" fill="#F76041"/>
<path d="M34.6959 22.5369H7.57241C7.1673 22.5369 6.83887 22.8652 6.83887 23.2704C6.83887 23.6756 7.1673 24.0039 7.57241 24.0039H34.6959C35.101 24.0039 35.4294 23.6756 35.4294 23.2704C35.4294 22.8652 35.101 22.5369 34.6959 22.5369Z" fill="#F76041"/>
<path d="M14.0175 26.2976H7.57241C7.1673 26.2976 6.83887 26.6259 6.83887 27.0311C6.83887 27.4364 7.1673 27.7647 7.57241 27.7647H14.0175C14.4226 27.7647 14.751 27.4364 14.751 27.0311C14.751 26.6259 14.4226 26.2976 14.0175 26.2976Z" fill="#F76041"/>
<path d="M14.0175 30.0587H7.57241C7.1673 30.0587 6.83887 30.387 6.83887 30.7923C6.83887 31.1975 7.1673 31.5258 7.57241 31.5258H14.0175C14.4226 31.5258 14.751 31.1975 14.751 30.7923C14.751 30.387 14.4226 30.0587 14.0175 30.0587Z" fill="#F76041"/>
<path d="M14.0175 33.8195H7.57241C7.1673 33.8195 6.83887 34.1478 6.83887 34.553C6.83887 34.9582 7.1673 35.2865 7.57241 35.2865H14.0175C14.4226 35.2865 14.751 34.9582 14.751 34.553C14.751 34.1478 14.4226 33.8195 14.0175 33.8195Z" fill="#F76041"/>
</svg>
