<svg width="50" height="44" viewBox="0 0 50 44" fill="none" xmlns="http://www.w3.org/2000/svg">
<path d="M46.6667 14.5H45V7.00004C44.9972 4.7 43.1334 2.83613 40.8333 2.83337H33.4442C32.9839 2.83337 32.6108 3.20647 32.6108 3.66671C32.6108 4.12694 32.9839 4.50004 33.4442 4.50004H38.5275L37.2692 6.59587C37.1192 6.84558 36.8496 6.99882 36.5583 7.00004H33.4442C32.9839 7.00004 32.6108 7.37314 32.6108 7.83337C32.6108 8.29361 32.9839 8.66671 33.4442 8.66671H36.5583C37.4345 8.66335 38.2456 8.2035 38.6983 7.45337L40.4717 4.50004H40.8333C42.214 4.50004 43.3333 5.61933 43.3333 7.00004V14.5H36.7133C34.8724 14.5 33.38 15.9924 33.38 17.8334V24.5C33.38 26.341 34.8724 27.8334 36.7133 27.8334H37.2275L36.7192 31.8967C36.676 32.24 36.8495 32.5743 37.1551 32.7366C37.4606 32.8989 37.8347 32.8555 38.095 32.6275L43.3333 28.0459V37C43.3333 38.3808 42.214 39.5 40.8333 39.5H33.4442C32.9839 39.5 32.6108 39.8731 32.6108 40.3334C32.6108 40.7936 32.9839 41.1667 33.4442 41.1667H40.8333C43.1334 41.164 44.9972 39.3001 45 37V27.8334H46.6667C48.5076 27.8334 50 26.341 50 24.5V17.8334C50 15.9924 48.5076 14.5 46.6667 14.5ZM48.3333 24.5C48.3333 25.4205 47.5871 26.1667 46.6667 26.1667H43.2633C43.0617 26.1667 42.8669 26.2398 42.715 26.3725L38.645 29.9325L38.9983 27.1034C39.028 26.8662 38.9544 26.6278 38.7962 26.4486C38.6381 26.2694 38.4107 26.1668 38.1717 26.1667H36.7133C35.7929 26.1667 35.0467 25.4205 35.0467 24.5V17.8334C35.0467 16.9129 35.7929 16.1667 36.7133 16.1667H46.6667C47.5871 16.1667 48.3333 16.9129 48.3333 17.8334V24.5Z" fill="#F76041"/>
<path d="M45.8335 18.6667H44.1668C43.7066 18.6667 43.3335 19.0398 43.3335 19.5001C43.3335 19.9603 43.7066 20.3334 44.1668 20.3334H45.8335C46.2937 20.3334 46.6668 19.9603 46.6668 19.5001C46.6668 19.0398 46.2937 18.6667 45.8335 18.6667Z" fill="#F76041"/>
<path d="M40.8334 18.6667H37.5467C37.0865 18.6667 36.7134 19.0398 36.7134 19.5001C36.7134 19.9603 37.0865 20.3334 37.5467 20.3334H40.8334C41.2936 20.3334 41.6667 19.9603 41.6667 19.5001C41.6667 19.0398 41.2936 18.6667 40.8334 18.6667Z" fill="#F76041"/>
<path d="M39.2134 22H37.5467C37.0865 22 36.7134 22.3731 36.7134 22.8333C36.7134 23.2936 37.0865 23.6667 37.5467 23.6667H39.2134C39.6736 23.6667 40.0467 23.2936 40.0467 22.8333C40.0467 22.3731 39.6736 22 39.2134 22Z" fill="#F76041"/>
<path d="M45.8334 22H42.5467C42.0865 22 41.7134 22.3731 41.7134 22.8333C41.7134 23.2936 42.0865 23.6667 42.5467 23.6667H45.8334C46.2936 23.6667 46.6667 23.2936 46.6667 22.8333C46.6667 22.3731 46.2936 22 45.8334 22Z" fill="#F76041"/>
<path d="M3.33333 26.9999H5.83333V39.4999C5.83609 41.8 7.69996 43.6638 10 43.6666H26.7775C29.0775 43.6638 30.9414 41.8 30.9442 39.4999V4.49992C30.9414 2.19987 29.0775 0.336007 26.7775 0.333252H10C7.69996 0.336007 5.83609 2.19987 5.83333 4.49992V13.6666H3.33333C1.49238 13.6666 0 15.159 0 16.9999V23.6666C0 25.5075 1.49238 26.9999 3.33333 26.9999ZM24.4717 1.99992L23.2142 4.09575C23.0635 4.34647 22.7925 4.49986 22.5 4.49992H14.2775C13.9846 4.49879 13.7135 4.34537 13.5617 4.09492L12.305 1.99992H24.4717ZM7.5 4.49992C7.5 3.11921 8.61929 1.99992 10 1.99992H10.3617L12.1333 4.95325C12.5876 5.70392 13.4001 6.1637 14.2775 6.16659H22.5C23.3775 6.16422 24.1902 5.70388 24.6433 4.95242L26.4167 1.99992H26.7783C28.159 1.99992 29.2783 3.11921 29.2783 4.49992V39.4999C29.2783 40.8806 28.159 41.9999 26.7783 41.9999H10C8.61929 41.9999 7.5 40.8806 7.5 39.4999V26.9999H9.80333L15.285 31.7941C15.5454 32.0214 15.919 32.0644 16.2242 31.9022C16.5294 31.74 16.7028 31.4062 16.66 31.0633L16.1525 26.9999H16.6667C18.5076 26.9999 20 25.5075 20 23.6666V16.9999C20 15.159 18.5076 13.6666 16.6667 13.6666H7.5V4.49992ZM1.66667 16.9999C1.66667 16.0794 2.41286 15.3333 3.33333 15.3333H16.6667C17.5871 15.3333 18.3333 16.0794 18.3333 16.9999V23.6666C18.3333 24.5871 17.5871 25.3333 16.6667 25.3333H15.2083C14.9694 25.3333 14.7419 25.436 14.5838 25.6152C14.4256 25.7943 14.352 26.0328 14.3817 26.2699L14.735 29.0991L10.6667 25.5391C10.5144 25.406 10.3189 25.3329 10.1167 25.3333H3.33333C2.41286 25.3333 1.66667 24.5871 1.66667 23.6666V16.9999Z" fill="#F76041"/>
<path d="M4.16683 19.4998H5.8335C6.29373 19.4998 6.66683 19.1267 6.66683 18.6665C6.66683 18.2062 6.29373 17.8331 5.8335 17.8331H4.16683C3.70659 17.8331 3.3335 18.2062 3.3335 18.6665C3.3335 19.1267 3.70659 19.4998 4.16683 19.4998Z" fill="#F76041"/>
<path d="M9.16683 19.4998H15.8335C16.2937 19.4998 16.6668 19.1267 16.6668 18.6665C16.6668 18.2062 16.2937 17.8331 15.8335 17.8331H9.16683C8.70659 17.8331 8.3335 18.2062 8.3335 18.6665C8.3335 19.1267 8.70659 19.4998 9.16683 19.4998Z" fill="#F76041"/>
<path d="M15.8335 21.1667H14.1668C13.7066 21.1667 13.3335 21.5398 13.3335 22.0001C13.3335 22.4603 13.7066 22.8334 14.1668 22.8334H15.8335C16.2937 22.8334 16.6668 22.4603 16.6668 22.0001C16.6668 21.5398 16.2937 21.1667 15.8335 21.1667Z" fill="#F76041"/>
<path d="M4.16683 22.8334H10.8335C11.2937 22.8334 11.6668 22.4603 11.6668 22.0001C11.6668 21.5398 11.2937 21.1667 10.8335 21.1667H4.16683C3.70659 21.1667 3.3335 21.5398 3.3335 22.0001C3.3335 22.4603 3.70659 22.8334 4.16683 22.8334Z" fill="#F76041"/>
<path d="M10.8335 38.6666C10.8335 39.1268 11.2066 39.4999 11.6668 39.4999H25.111C25.5712 39.4999 25.9443 39.1268 25.9443 38.6666C25.9443 38.2063 25.5712 37.8333 25.111 37.8333H11.6668C11.2066 37.8333 10.8335 38.2063 10.8335 38.6666Z" fill="#F76041"/>
<path d="M33.4442 36.9998H39.1667C39.6269 36.9998 40 36.6267 40 36.1665C40 35.7062 39.6269 35.3331 39.1667 35.3331H33.4442C32.9839 35.3331 32.6108 35.7062 32.6108 36.1665C32.6108 36.6267 32.9839 36.9998 33.4442 36.9998Z" fill="#F76041"/>
</svg>
