<svg width="44" height="42" viewBox="0 0 44 42" fill="none" xmlns="http://www.w3.org/2000/svg">
<path d="M41.8853 18.2606L35.0427 11.5697C34.8026 11.335 34.4879 11.1912 34.1577 11.153V9.61459H35.9705C36.5772 9.61459 37.1194 9.26038 37.3517 8.71224C37.5839 8.16403 37.4567 7.5387 37.0277 7.11919L30.185 0.428287C29.9026 0.152087 29.5272 0 29.1278 0C28.7283 0 28.353 0.152087 28.0705 0.428205L21.2279 7.11911C20.7989 7.5387 20.6717 8.16403 20.9039 8.71216C21.1362 9.26038 21.6783 9.61451 22.2851 9.61451H24.0978V17.1941C23.3777 17.0704 22.6372 17.0056 21.8814 17.0056C21.1877 17.0056 20.507 17.0607 19.843 17.1652V15.0268H21.6557C22.2625 15.0268 22.8046 14.6726 23.0369 14.1244C23.2691 13.5762 23.1419 12.9509 22.7129 12.5314L19.7729 9.65659C19.5271 9.41632 19.1288 9.41632 18.8831 9.65659C18.6373 9.89686 18.6373 10.2864 18.8831 10.5266L21.823 13.4014C21.9203 13.4965 21.897 13.6002 21.8743 13.6536C21.8517 13.7069 21.7933 13.7964 21.6558 13.7964H19.2138C18.8663 13.7964 18.5847 14.0719 18.5847 14.4116V17.428C17.9295 17.5992 17.2947 17.82 16.6852 18.0862L12.1182 13.6205C11.5352 13.0506 10.5869 13.0505 10.004 13.6205L9.8241 13.7964H7.97043C7.83285 13.7964 7.77437 13.7069 7.75181 13.6536C7.72924 13.6003 7.70584 13.4966 7.80315 13.4015L14.6458 6.71059C14.7381 6.62028 14.8881 6.62044 14.9803 6.71059L16.8043 8.4942C17.0501 8.73448 17.4484 8.73448 17.6941 8.4942C17.9399 8.25393 17.9399 7.86437 17.6941 7.62418L15.8701 5.84057C15.2871 5.27053 14.3388 5.27069 13.7559 5.84057L6.91331 12.5315C6.4842 12.9511 6.35694 13.5763 6.58915 14.1245C6.82145 14.6727 7.36356 15.027 7.97043 15.027H8.56573L3.16134 20.3115C2.73223 20.7311 2.60497 21.3564 2.83718 21.9046C3.06948 22.4528 3.6115 22.807 4.21837 22.807H6.03111V38.9997C6.03111 39.8057 6.70174 40.4615 7.52606 40.4615H14.5959C14.8699 40.4615 15.1365 40.3878 15.368 40.2511C17.2766 41.3612 19.504 42 21.8814 42C24.5909 42 27.1055 41.1707 29.1754 39.7589C29.4382 40.1794 29.9107 40.4616 30.4506 40.4616H37.5204C38.3448 40.4616 39.0154 39.8058 39.0154 38.9998V20.7561H40.8281C41.4349 20.7561 41.977 20.4019 42.2093 19.8537C42.4415 19.3056 42.3144 18.6801 41.8853 18.2606ZM7.52606 39.231C7.3956 39.231 7.28948 39.1273 7.28948 38.9997V22.1917C7.28948 21.8519 7.00786 21.5764 6.66029 21.5764H4.21829C4.08071 21.5764 4.02232 21.4869 3.99975 21.4336C3.9771 21.3803 3.95378 21.2766 4.05109 21.1815L10.8937 14.4905C10.954 14.4316 11.0244 14.4228 11.0609 14.4228C11.0976 14.4228 11.1679 14.4316 11.2282 14.4905L15.5067 18.6742C11.681 20.836 9.10095 24.8803 9.10095 29.5027C9.10095 33.4294 10.9632 36.9382 13.8687 39.2309H7.52606V39.231ZM21.8814 40.7695C15.5282 40.7695 10.3592 35.7153 10.3592 29.5028C10.3592 23.2903 15.5281 18.2361 21.8814 18.2361C28.2348 18.2361 33.4037 23.2903 33.4037 29.5028C33.4037 35.7153 28.2349 40.7695 21.8814 40.7695ZM41.0467 19.3829C41.0241 19.4362 40.9657 19.5257 40.8282 19.5257H38.3863C38.0387 19.5257 37.7571 19.8012 37.7571 20.141V38.9997C37.7571 39.1273 37.6509 39.231 37.5205 39.231H30.4506C30.3202 39.231 30.2141 39.1273 30.2141 38.9997C30.2141 38.9904 30.2131 38.9814 30.2126 38.9722C32.9354 36.6786 34.6622 33.2843 34.6622 29.5028C34.6622 28.2969 34.4852 27.1308 34.1577 26.0267V18.5332C34.1577 18.1935 33.8761 17.918 33.5285 17.918C33.181 17.918 32.8994 18.1935 32.8994 18.5332V23.1764C31.2464 20.4345 28.5544 18.3598 25.3562 17.4752V8.99936C25.3562 8.65958 25.0746 8.38412 24.727 8.38412H22.2851C22.1475 8.38412 22.0892 8.29462 22.0666 8.2413C22.0439 8.18798 22.0206 8.08421 22.1178 7.98914L28.9605 1.29815C29.0208 1.23925 29.0912 1.23039 29.1278 1.23039C29.1643 1.23039 29.2346 1.23917 29.2949 1.29815L36.1377 7.98905C36.2349 8.08413 36.2116 8.18782 36.1889 8.24122C36.1663 8.29454 36.1079 8.38404 35.9704 8.38404H33.5285C33.1809 8.38404 32.8993 8.6595 32.8993 8.99927V15.6586C32.8993 15.9984 33.1809 16.2738 33.5285 16.2738C33.876 16.2738 34.1576 15.9984 34.1576 15.6586V12.4444L40.9955 19.1306C41.0927 19.2258 41.0694 19.3295 41.0467 19.3829Z" fill="#F76041"/>
<path d="M21.8813 19.5684C19.7236 19.5684 17.6623 20.2218 15.9201 21.4582C15.6388 21.6578 15.5763 22.0425 15.7804 22.3175C15.9845 22.5925 16.3781 22.6536 16.6593 22.4541C18.1851 21.3712 19.9908 20.7988 21.8813 20.7988C26.7894 20.7988 30.7825 24.7034 30.7825 29.5026C30.7825 34.3019 26.7894 38.2064 21.8813 38.2064C16.9731 38.2064 12.98 34.3019 12.98 29.5026C12.98 27.6318 13.5783 25.8488 14.7101 24.3464C14.9162 24.0729 14.8564 23.6877 14.5767 23.4862C14.2971 23.2847 13.9031 23.3431 13.697 23.6166C12.4047 25.332 11.7217 27.3673 11.7217 29.5026C11.7217 34.9804 16.2792 39.4369 21.8813 39.4369C27.4833 39.4369 32.0408 34.9804 32.0408 29.5026C32.0408 24.0249 27.4833 19.5684 21.8813 19.5684Z" fill="#F76041"/>
<path d="M21.8815 36.3714C25.7546 36.3714 28.9055 33.2903 28.9055 29.5031C28.9055 25.7159 25.7546 22.6348 21.8815 22.6348C18.0084 22.6348 14.8574 25.7159 14.8574 29.5031C14.8574 33.2903 18.0084 36.3714 21.8815 36.3714ZM21.8815 23.8653C25.0606 23.8653 27.6472 26.3944 27.6472 29.5032C27.6472 32.6119 25.0607 35.141 21.8815 35.141C18.7022 35.141 16.1158 32.6119 16.1158 29.5032C16.1158 26.3944 18.7023 23.8653 21.8815 23.8653Z" fill="#F76041"/>
<path d="M21.2527 33.071V33.5573C21.2527 33.8971 21.5343 34.1726 21.8819 34.1726C22.2294 34.1726 22.5111 33.8971 22.5111 33.5573V33.071C23.7975 32.838 24.762 31.9071 24.762 30.7968C24.762 29.1473 23.2329 28.756 22.1165 28.4703C21.073 28.2033 20.7025 28.0471 20.7025 27.7027C20.7025 27.296 21.2536 26.9394 21.882 26.9394C22.5103 26.9394 23.0615 27.296 23.0615 27.7027C23.0615 28.0424 23.3431 28.3179 23.6907 28.3179C24.0382 28.3179 24.3198 28.0424 24.3198 27.7027C24.3198 26.7812 23.5514 26.004 22.5111 25.7766V25.2793C22.5111 24.9395 22.2295 24.6641 21.882 24.6641C21.5344 24.6641 21.2528 24.9395 21.2528 25.2793V25.7766C20.2126 26.004 19.4441 26.7812 19.4441 27.7027C19.4441 29.0583 20.8046 29.4065 21.798 29.6607C23.0777 29.9882 23.5037 30.1983 23.5037 30.7968C23.5037 31.3933 22.761 31.8972 21.882 31.8972C21.0029 31.8972 20.2603 31.3933 20.2603 30.7968C20.2603 30.457 19.9787 30.1816 19.6311 30.1816C19.2836 30.1816 19.002 30.457 19.002 30.7968C19.0019 31.9071 19.9664 32.8379 21.2527 33.071Z" fill="#F76041"/>
</svg>
