<svg width="50" height="48" viewBox="0 0 50 48" fill="none" xmlns="http://www.w3.org/2000/svg">
<path d="M23.4375 29.4688C23.2303 29.4688 23.0316 29.5511 22.8851 29.6976C22.7386 29.8441 22.6562 30.0428 22.6562 30.25C22.6562 30.4572 22.7386 30.6559 22.8851 30.8024C23.0316 30.9489 23.2303 31.0312 23.4375 31.0312H24.2188C24.2188 31.2385 24.3011 31.4372 24.4476 31.5837C24.5941 31.7302 24.7928 31.8125 25 31.8125C25.2072 31.8125 25.4059 31.7302 25.5524 31.5837C25.6989 31.4372 25.7812 31.2385 25.7812 31.0312H26.5625C26.7697 31.0312 26.9684 30.9489 27.1149 30.8024C27.2614 30.6559 27.3438 30.4572 27.3438 30.25V27.9062C27.3438 27.699 27.2614 27.5003 27.1149 27.3538C26.9684 27.2073 26.7697 27.125 26.5625 27.125H24.2188V26.3438H26.5625C26.7697 26.3438 26.9684 26.2614 27.1149 26.1149C27.2614 25.9684 27.3438 25.7697 27.3438 25.5625C27.3438 25.3553 27.2614 25.1566 27.1149 25.0101C26.9684 24.8636 26.7697 24.7812 26.5625 24.7812H25.7812C25.7812 24.574 25.6989 24.3753 25.5524 24.2288C25.4059 24.0823 25.2072 24 25 24C24.7928 24 24.5941 24.0823 24.4476 24.2288C24.3011 24.3753 24.2188 24.574 24.2188 24.7812H23.4375C23.2303 24.7812 23.0316 24.8636 22.8851 25.0101C22.7386 25.1566 22.6562 25.3553 22.6562 25.5625V27.9062C22.6562 28.1135 22.7386 28.3122 22.8851 28.4587C23.0316 28.6052 23.2303 28.6875 23.4375 28.6875H25.7812V29.4688H23.4375Z" fill="#F76041"/>
<path d="M25 35.7188C26.5452 35.7188 28.0556 35.2606 29.3404 34.4021C30.6251 33.5437 31.6265 32.3235 32.2178 30.896C32.8091 29.4684 32.9638 27.8976 32.6624 26.3821C32.3609 24.8666 31.6169 23.4746 30.5243 22.382C29.4317 21.2894 28.0396 20.5453 26.5241 20.2439C25.0087 19.9424 23.4378 20.0971 22.0103 20.6884C20.5827 21.2798 19.3626 22.2811 18.5041 23.5659C17.6457 24.8506 17.1875 26.3611 17.1875 27.9063C17.1899 29.9775 18.0137 31.9633 19.4783 33.4279C20.9429 34.8925 22.9287 35.7164 25 35.7188ZM25 21.6563C26.2361 21.6563 27.4445 22.0228 28.4723 22.7096C29.5001 23.3963 30.3012 24.3724 30.7742 25.5145C31.2473 26.6565 31.3711 27.9132 31.1299 29.1256C30.8887 30.3379 30.2935 31.4516 29.4194 32.3257C28.5453 33.1997 27.4317 33.795 26.2193 34.0362C25.0069 34.2773 23.7503 34.1535 22.6082 33.6805C21.4662 33.2075 20.4901 32.4064 19.8033 31.3786C19.1166 30.3508 18.75 29.1424 18.75 27.9063C18.7519 26.2492 19.4109 24.6606 20.5826 23.4889C21.7543 22.3172 23.343 21.6581 25 21.6563Z" fill="#F76041"/>
<path d="M7.8125 35.7188C8.43388 35.7195 9.0296 35.9666 9.46898 36.406C9.90836 36.8454 10.1555 37.4411 10.1562 38.0625C10.1562 38.2697 10.2386 38.4684 10.3851 38.6149C10.5316 38.7614 10.7303 38.8438 10.9375 38.8438H39.0625C39.2697 38.8438 39.4684 38.7614 39.6149 38.6149C39.7614 38.4684 39.8438 38.2697 39.8438 38.0625C39.8445 37.4411 40.0916 36.8454 40.531 36.406C40.9704 35.9666 41.5661 35.7195 42.1875 35.7188C42.3947 35.7188 42.5934 35.6364 42.7399 35.4899C42.8864 35.3434 42.9688 35.1447 42.9688 34.9375V20.875C42.9688 20.6678 42.8864 20.4691 42.7399 20.3226C42.5934 20.1761 42.3947 20.0938 42.1875 20.0938C41.5661 20.093 40.9704 19.8459 40.531 19.4065C40.0916 18.9671 39.8445 18.3714 39.8438 17.75C39.8438 17.5428 39.7614 17.3441 39.6149 17.1976C39.4684 17.0511 39.2697 16.9688 39.0625 16.9688H10.9375C10.7303 16.9688 10.5316 17.0511 10.3851 17.1976C10.2386 17.3441 10.1562 17.5428 10.1562 17.75C10.1555 18.3714 9.90836 18.9671 9.46898 19.4065C9.0296 19.8459 8.43388 20.093 7.8125 20.0938C7.6053 20.0938 7.40659 20.1761 7.26007 20.3226C7.11356 20.4691 7.03125 20.6678 7.03125 20.875V34.9375C7.03125 35.1447 7.11356 35.3434 7.26007 35.4899C7.40659 35.6364 7.6053 35.7188 7.8125 35.7188ZM8.59375 21.5781C9.34378 21.4235 10.0321 21.0526 10.5736 20.5111C11.1151 19.9696 11.486 19.2813 11.6406 18.5312H38.3594C38.514 19.2813 38.8849 19.9696 39.4264 20.5111C39.9679 21.0526 40.6562 21.4235 41.4062 21.5781V34.2344C40.6562 34.389 39.9679 34.7599 39.4264 35.3014C38.8849 35.8429 38.514 36.5312 38.3594 37.2812H11.6406C11.486 36.5312 11.1151 35.8429 10.5736 35.3014C10.0321 34.7599 9.34378 34.389 8.59375 34.2344V21.5781Z" fill="#F76041"/>
<path d="M46.4844 2.90625H46.0938V1.34375C46.0938 1.13655 46.0114 0.937836 45.8649 0.791323C45.7184 0.64481 45.5197 0.5625 45.3125 0.5625H42.1875C41.9803 0.5625 41.7816 0.64481 41.6351 0.791323C41.4886 0.937836 41.4062 1.13655 41.4062 1.34375V2.90625H36.7188V1.34375C36.7188 1.13655 36.6364 0.937836 36.4899 0.791323C36.3434 0.64481 36.1447 0.5625 35.9375 0.5625H32.8125C32.6053 0.5625 32.4066 0.64481 32.2601 0.791323C32.1136 0.937836 32.0312 1.13655 32.0312 1.34375V2.90625H27.3438V1.34375C27.3438 1.13655 27.2614 0.937836 27.1149 0.791323C26.9684 0.64481 26.7697 0.5625 26.5625 0.5625H23.4375C23.2303 0.5625 23.0316 0.64481 22.8851 0.791323C22.7386 0.937836 22.6562 1.13655 22.6562 1.34375V2.90625H17.9688V1.34375C17.9688 1.13655 17.8864 0.937836 17.7399 0.791323C17.5934 0.64481 17.3947 0.5625 17.1875 0.5625H14.0625C13.8553 0.5625 13.6566 0.64481 13.5101 0.791323C13.3636 0.937836 13.2812 1.13655 13.2812 1.34375V2.90625H8.59375V1.34375C8.59375 1.13655 8.51144 0.937836 8.36493 0.791323C8.21841 0.64481 8.0197 0.5625 7.8125 0.5625H4.6875C4.4803 0.5625 4.28159 0.64481 4.13507 0.791323C3.98856 0.937836 3.90625 1.13655 3.90625 1.34375V2.90625H3.51562C2.79067 2.90705 2.09564 3.19539 1.58301 3.70801C1.07039 4.22064 0.782051 4.91567 0.78125 5.64062V40.0156C0.782051 40.7406 1.07039 41.4356 1.58301 41.9482C2.09564 42.4609 2.79067 42.7492 3.51562 42.75H3.90625V46.6562C3.90625 46.8634 3.98856 47.0622 4.13507 47.2087C4.28159 47.3552 4.4803 47.4375 4.6875 47.4375H45.3125C45.5197 47.4375 45.7184 47.3552 45.8649 47.2087C46.0114 47.0622 46.0938 46.8634 46.0938 46.6562V42.75H46.4844C47.2093 42.7492 47.9044 42.4609 48.417 41.9482C48.9296 41.4356 49.2179 40.7406 49.2188 40.0156V5.64062C49.2179 4.91567 48.9296 4.22064 48.417 3.70801C47.9044 3.19539 47.2093 2.90705 46.4844 2.90625ZM42.9688 2.125H44.5312V5.25H42.9688V2.125ZM33.5938 2.125H35.1562V5.25H33.5938V2.125ZM24.2188 2.125H25.7812V5.25H24.2188V2.125ZM14.8438 2.125H16.4062V5.25H14.8438V2.125ZM5.46875 2.125H7.03125V5.25H5.46875V2.125ZM44.5312 45.875H5.46875V44.3125H44.5312V45.875ZM44.5312 42.75H5.46875V41.1875H44.5312V42.75ZM44.5312 39.625H5.46875V16.1875H44.5312V39.625ZM47.6562 40.0156C47.656 40.3263 47.5324 40.6243 47.3127 40.844C47.093 41.0637 46.7951 41.1872 46.4844 41.1875H46.0938V15.4062C46.0938 15.199 46.0114 15.0003 45.8649 14.8538C45.7184 14.7073 45.5197 14.625 45.3125 14.625H4.6875C4.4803 14.625 4.28159 14.7073 4.13507 14.8538C3.98856 15.0003 3.90625 15.199 3.90625 15.4062V41.1875H3.51562C3.2049 41.1872 2.90698 41.0637 2.68727 40.844C2.46756 40.6243 2.34401 40.3263 2.34375 40.0156V9.15625H47.6562V40.0156ZM47.6562 7.59375H2.34375V5.64062C2.34401 5.3299 2.46756 5.03198 2.68727 4.81227C2.90698 4.59256 3.2049 4.46901 3.51562 4.46875H3.90625V6.03125C3.90625 6.23845 3.98856 6.43716 4.13507 6.58368C4.28159 6.73019 4.4803 6.8125 4.6875 6.8125H7.8125C8.0197 6.8125 8.21841 6.73019 8.36493 6.58368C8.51144 6.43716 8.59375 6.23845 8.59375 6.03125V4.46875H13.2812V6.03125C13.2812 6.23845 13.3636 6.43716 13.5101 6.58368C13.6566 6.73019 13.8553 6.8125 14.0625 6.8125H17.1875C17.3947 6.8125 17.5934 6.73019 17.7399 6.58368C17.8864 6.43716 17.9688 6.23845 17.9688 6.03125V4.46875H22.6562V6.03125C22.6562 6.23845 22.7386 6.43716 22.8851 6.58368C23.0316 6.73019 23.2303 6.8125 23.4375 6.8125H26.5625C26.7697 6.8125 26.9684 6.73019 27.1149 6.58368C27.2614 6.43716 27.3438 6.23845 27.3438 6.03125V4.46875H32.0312V6.03125C32.0312 6.23845 32.1136 6.43716 32.2601 6.58368C32.4066 6.73019 32.6053 6.8125 32.8125 6.8125H35.9375C36.1447 6.8125 36.3434 6.73019 36.4899 6.58368C36.6364 6.43716 36.7188 6.23845 36.7188 6.03125V4.46875H41.4062V6.03125C41.4062 6.23845 41.4886 6.43716 41.6351 6.58368C41.7816 6.73019 41.9803 6.8125 42.1875 6.8125H45.3125C45.5197 6.8125 45.7184 6.73019 45.8649 6.58368C46.0114 6.43716 46.0938 6.23845 46.0938 6.03125V4.46875H46.4844C46.7951 4.46901 47.093 4.59256 47.3127 4.81227C47.5324 5.03198 47.656 5.3299 47.6562 5.64062V7.59375Z" fill="#F76041"/>
</svg>
