<svg width="36" height="40" viewBox="0 0 36 40" fill="none" xmlns="http://www.w3.org/2000/svg">
<path d="M15.9375 9.5H14.5625V10.8125H15.9375V9.5Z" fill="#F76041"/>
<path d="M20.0625 13.7656H18.6875C18.6875 13.8813 18.4265 14.0938 18 14.0938C17.5735 14.0938 17.3125 13.8813 17.3125 13.7656H15.9375C15.9375 14.6856 16.8435 15.4062 18 15.4062C19.1565 15.4062 20.0625 14.6856 20.0625 13.7656Z" fill="#F76041"/>
<path d="M14.5625 29.8437V25.9062C14.5625 25.7495 14.5037 25.5979 14.3968 25.4789C14.2899 25.36 14.1419 25.2815 13.9796 25.2576L5.04207 23.9451C4.9441 23.9307 4.84403 23.9367 4.74871 23.9627C4.6534 23.9887 4.5651 24.0341 4.48987 24.0957C4.41463 24.1573 4.35424 24.2337 4.31284 24.3196C4.27144 24.4056 4.25 24.4991 4.25 24.5937V26.5625H5.625V25.3586L13.1875 26.4692V29.0796L7.79131 28.2927L7.58369 29.5901L13.7712 30.4924C13.8691 30.5067 13.9691 30.5006 14.0643 30.4746C14.1596 30.4485 14.2478 30.4031 14.3229 30.3415C14.3981 30.2799 14.4584 30.2036 14.4997 30.1176C14.5411 30.0317 14.5625 29.9383 14.5625 29.8437Z" fill="#F76041"/>
<path d="M7.79921 31.493L7.57617 32.7881L13.8496 33.7725L14.0726 32.4773L7.79921 31.493Z" fill="#F76041"/>
<path d="M6.59207 34.1177L6.37695 35.4141L13.929 36.5559L14.1442 35.2596L6.59207 34.1177Z" fill="#F76041"/>
<path d="M22.2698 33.7685L29.1354 32.456L28.8653 31.169L22.8223 32.3243V26.4692L30.3754 25.3588V26.5625H31.7504V24.5938C31.7504 24.4991 31.7289 24.4056 31.6875 24.3196C31.6461 24.2337 31.5857 24.1572 31.5105 24.0956C31.4353 24.034 31.3469 23.9887 31.2516 23.9627C31.1563 23.9367 31.0562 23.9307 30.9582 23.9452L22.0301 25.2577C21.8678 25.2815 21.7198 25.36 21.6129 25.479C21.506 25.598 21.4473 25.7495 21.4473 25.9063V33.125C21.4473 33.2221 21.4698 33.318 21.5134 33.4058C21.5569 33.4936 21.6203 33.571 21.699 33.6326C21.7777 33.6941 21.8697 33.7383 21.9684 33.7618C22.0671 33.7853 22.17 33.7876 22.2698 33.7685Z" fill="#F76041"/>
<path d="M29.5645 33.7924L22.002 35.1045L22.2478 36.3958L29.8104 35.0837L29.5645 33.7924Z" fill="#F76041"/>
<path d="M34.5 27.2278V21.3125C34.5 21.2185 34.4788 21.1256 34.4379 21.04C34.397 20.9545 34.3373 20.8783 34.2629 20.8167C34.1885 20.7551 34.1011 20.7095 34.0066 20.683C33.9121 20.6564 33.8127 20.6496 33.7152 20.6629L19.337 22.6235L21.8208 19.3044L28.8258 20.4188C28.9888 20.4443 29.1429 20.5071 29.2748 20.602L30.1003 19.5523C29.7916 19.3318 29.4322 19.185 29.0519 19.1242L21.9185 17.9893L21.5849 17.0341L22.3972 16.6414C22.9369 16.3824 23.3903 15.9851 23.7065 15.4938C24.0227 15.0026 24.1893 14.437 24.1875 13.8604V12.7813H24.7031C25.1132 12.7808 25.5064 12.6251 25.7964 12.3483C26.0864 12.0715 26.2495 11.6962 26.25 11.3047V9.66407C26.2494 9.42142 26.1864 9.18261 26.0666 8.96864C25.9467 8.75466 25.7736 8.57206 25.5625 8.43688V5.89063C25.5629 4.91307 25.294 3.95259 24.7829 3.10545L23.5921 3.76162C23.9826 4.40921 24.1879 5.14341 24.1875 5.89063V8.84375H20.4062C19.2215 8.84247 18.0856 8.39265 17.2478 7.59297C16.4101 6.79329 15.9388 5.70905 15.9375 4.57813V1.625H19.7188C20.8457 1.62361 21.9313 2.03004 22.7568 2.76238L23.6918 1.80016C22.6124 0.842317 21.1926 0.310714 19.7188 0.312505H13.5312C12.8933 0.313186 12.2817 0.555397 11.8306 0.985997C11.3795 1.4166 11.1257 2.00042 11.125 2.60938V4.57813C11.1248 4.88387 11.1888 5.18655 11.3131 5.46832C11.4374 5.7501 11.6196 6.00525 11.8488 6.21875H11.8125V8.1875H11.2969C10.8868 8.18795 10.4936 8.34366 10.2036 8.62047C9.91359 8.89728 9.75047 9.27259 9.75 9.66407V11.3047C9.75047 11.6962 9.91359 12.0715 10.2036 12.3483C10.4936 12.6251 10.8868 12.7808 11.2969 12.7813H11.8125V13.8853C11.8104 14.4646 11.9785 15.0329 12.2975 15.5257C12.6166 16.0185 13.0739 16.4161 13.6177 16.6734L14.4092 17.0512L14.0816 17.9893L6.94812 19.1242C6.56787 19.185 6.20839 19.3318 5.89975 19.5523L6.72521 20.602C6.85712 20.5071 7.01121 20.4443 7.1742 20.4189L14.1793 19.3044L16.663 22.6235L2.28476 20.6629C2.18725 20.6496 2.08788 20.6564 1.99339 20.683C1.8989 20.7095 1.81149 20.7551 1.73708 20.8167C1.66266 20.8783 1.60298 20.9545 1.56208 21.04C1.52118 21.1256 1.50001 21.2185 1.5 21.3125V27.2278C1.12204 27.2686 0.773023 27.4408 0.51945 27.7114C0.265877 27.982 0.125476 28.3322 0.125 28.6953V32.9609C0.125476 33.324 0.265877 33.6742 0.51945 33.9449C0.773023 34.2155 1.12204 34.3876 1.5 34.4284V37.0625C1.50001 37.2205 1.55971 37.3731 1.66815 37.4925C1.77658 37.6118 1.92648 37.6898 2.09031 37.7121L6.21531 38.2746L6.40969 36.9753L2.875 36.4933V34.4375H3.04688C3.91267 34.4366 4.74272 34.1078 5.35493 33.5235C5.96714 32.9391 6.31152 32.1468 6.3125 31.3203V30.3359C6.31152 29.5095 5.96714 28.7172 5.35493 28.1328C4.74272 27.5484 3.91267 27.2197 3.04688 27.2188H2.875V22.0692L15.9375 23.8504V38.2746L7.78476 37.1629L7.59024 38.4622L16.5175 39.6795C16.5323 39.6817 16.5473 39.6835 16.5625 39.6848L16.566 39.6851C16.5691 39.6853 16.5723 39.6856 16.5755 39.6858C16.5792 39.6861 16.583 39.6863 16.5867 39.6865L16.5931 39.6868C16.597 39.687 16.601 39.6871 16.6049 39.6872L16.6093 39.6873C16.6145 39.6874 16.6198 39.6875 16.625 39.6875H19.375C19.411 39.6875 19.447 39.6848 19.4825 39.6795L33.9098 37.7122C34.0736 37.6898 34.2235 37.6118 34.3319 37.4925C34.4403 37.3731 34.5 37.2205 34.5 37.0625V34.4284C34.878 34.3876 35.227 34.2155 35.4805 33.9449C35.7341 33.6742 35.8745 33.324 35.875 32.9609V28.6953C35.8745 28.3322 35.7341 27.982 35.4805 27.7114C35.227 27.4408 34.878 27.2686 34.5 27.2278ZM4.9375 30.3359V31.3203C4.93694 31.7988 4.73756 32.2575 4.38313 32.5958C4.02869 32.9342 3.54813 33.1245 3.04688 33.125H1.67188C1.62631 33.125 1.58262 33.1076 1.5504 33.0769C1.51818 33.0461 1.50005 33.0044 1.5 32.9609V28.6953C1.50005 28.6518 1.51818 28.6101 1.5504 28.5794C1.58262 28.5486 1.62631 28.5313 1.67188 28.5312H3.04688C3.54813 28.5318 4.02869 28.7221 4.38313 29.0604C4.73756 29.3988 4.93694 29.8575 4.9375 30.3359ZM24.875 10.1563V11.3047C24.8749 11.3482 24.8568 11.3899 24.8246 11.4206C24.7924 11.4514 24.7487 11.4687 24.7031 11.4688H24.1875V10.1563H24.875ZM12.5 2.60938C12.5003 2.3484 12.6091 2.09819 12.8024 1.91364C12.9957 1.7291 13.2578 1.6253 13.5312 1.625H14.5625V5.5625H13.5312C13.2578 5.56221 12.9957 5.45841 12.8024 5.27387C12.6091 5.08932 12.5003 4.83911 12.5 4.57813V2.60938ZM11.2969 11.4688C11.2513 11.4687 11.2076 11.4514 11.1754 11.4206C11.1432 11.3899 11.1251 11.3482 11.125 11.3047V9.66407C11.1251 9.62057 11.1432 9.57887 11.1754 9.54811C11.2076 9.51735 11.2513 9.50005 11.2969 9.5H11.8125V11.4688H11.2969ZM13.1875 13.8853V6.8516C13.3014 6.8672 13.4162 6.87502 13.5312 6.875H15.0812C15.5449 7.85232 16.2937 8.68149 17.238 9.26337C18.1824 9.84525 19.2823 10.1552 20.4062 10.1563H22.8125V13.8604C22.8135 14.1942 22.7171 14.5217 22.534 14.8061C22.3509 15.0905 22.0884 15.3206 21.776 15.4705L18.4611 17.0728C18.3173 17.1419 18.1587 17.1781 17.9978 17.1785C17.8369 17.1789 17.6781 17.1435 17.534 17.0751L14.2327 15.4995C13.9179 15.3505 13.6531 15.1203 13.4683 14.835C13.2836 14.5497 13.1863 14.2207 13.1875 13.8853ZM15.6516 17.6441L16.919 18.249C17.2552 18.4086 17.6257 18.4913 18.0012 18.4903C18.3767 18.4894 18.7468 18.405 19.0822 18.2438L20.3447 17.6335L20.6746 18.578L18 22.1522L15.3254 18.578L15.6516 17.6441ZM20.0625 38.2746V29.8438H18.6875V38.375H17.3125V23.9375H18.6875V28.5312H20.0625V23.8504L33.125 22.0692V27.2188H32.9531C32.0873 27.2197 31.2573 27.5484 30.6451 28.1328C30.0329 28.7172 29.6885 29.5095 29.6875 30.3359V31.3203C29.6885 32.1468 30.0329 32.9391 30.6451 33.5235C31.2573 34.1078 32.0873 34.4366 32.9531 34.4375H33.125V36.4933L20.0625 38.2746ZM34.5 32.9609C34.4999 33.0044 34.4818 33.0461 34.4496 33.0769C34.4174 33.1076 34.3737 33.125 34.3281 33.125H32.9531C32.4519 33.1245 31.9713 32.9342 31.6169 32.5958C31.2624 32.2575 31.0631 31.7988 31.0625 31.3203V30.3359C31.0631 29.8575 31.2624 29.3988 31.6169 29.0604C31.9713 28.7221 32.4519 28.5318 32.9531 28.5312H34.3281C34.3737 28.5313 34.4174 28.5486 34.4496 28.5794C34.4818 28.6101 34.4999 28.6518 34.5 28.6953V32.9609Z" fill="#F76041"/>
</svg>
