<svg width="44" height="42" viewBox="0 0 44 42" fill="none" xmlns="http://www.w3.org/2000/svg">
<g clip-path="url(#clip0)">
<path d="M35.2695 28.7524L33.5796 27.7377C33.0645 27.4289 32.4752 27.2659 31.8749 27.2656H29.3317C28.8111 27.2646 28.2927 27.3318 27.7893 27.465L20.1267 29.5265C19.289 29.7584 18.6161 30.3838 18.3226 31.2036L11.5827 27.5491C11.0361 27.2373 10.3963 27.1315 9.7788 27.2503C9.54586 27.2916 9.32005 27.3659 9.10785 27.4711C8.6287 27.701 8.23119 28.0725 7.96812 28.5352C7.7381 28.9382 7.61726 29.3944 7.61726 29.8584C7.61014 30.8059 8.11099 31.6839 8.9287 32.1586L21.0083 39.4025C21.5331 39.7282 22.1376 39.9006 22.7548 39.9006H32.1033C32.5209 39.9009 32.9346 39.8217 33.3227 39.6678L35.2695 38.8973V39.9006H41.9044V26.6006H35.2695V28.7524ZM32.8351 38.431C32.6029 38.5229 32.355 38.5703 32.1052 38.5706H22.7548C22.3809 38.5703 22.0145 38.4647 21.6977 38.266L9.60158 31.0137C9.19046 30.7757 8.93874 30.3347 8.94198 29.859C8.94295 29.6259 9.00418 29.3966 9.11984 29.194C9.25202 28.9645 9.45094 28.7803 9.6897 28.6667C9.79499 28.6154 9.90644 28.579 10.0214 28.5589C10.1054 28.5433 10.1906 28.5352 10.2758 28.5352C10.5038 28.5345 10.728 28.5943 10.926 28.7079L18.2344 32.6661C18.2429 32.7067 18.2429 32.7466 18.2535 32.7872C18.5678 33.9481 19.6184 34.7543 20.8187 34.7556C21.1881 34.7218 21.5538 34.6563 21.9121 34.5601L28.8056 32.7113L28.4635 31.4264L21.5924 33.2672C21.2898 33.337 20.8994 33.4168 20.8187 33.4237C20.2194 33.4246 19.6939 33.0233 19.5361 32.444C19.5148 32.3635 19.5021 32.281 19.4976 32.1979C19.4976 32.1979 19.4924 32.0368 19.4976 31.9803C19.5481 31.4241 19.9369 30.9572 20.4737 30.8075L28.133 28.7537C28.5241 28.6488 28.9271 28.5956 29.3317 28.5956H31.8749C32.2351 28.5956 32.5886 28.6936 32.8973 28.8791L35.2695 30.3026V37.4666L32.8351 38.431ZM36.5964 27.9306H40.5774V38.5706H36.5964V27.9306Z" fill="#F76041"/>
<path d="M29.4609 5.31905L25.9017 1.75214C24.7843 0.625732 23.264 -0.00549808 21.6794 -0.000952178H13.3378C12.823 -0.000302764 12.3154 0.120163 11.8544 0.350056L10.3673 1.09558C10.0693 1.24592 9.73817 1.31768 9.40481 1.30437L8.73062 1.28067V-0.000952178H2.0957V14.629H8.73062V12.634H9.85869L10.2601 12.9C11.3833 13.6475 12.6912 14.0696 14.0386 14.1189V22.609H41.9052V5.31905H29.4609ZM7.40364 13.299H3.42269V1.32905H7.40364V13.299ZM10.9945 11.7934L10.2565 11.304H8.73062V2.61132L9.35621 2.63372C9.91182 2.65353 10.4632 2.53371 10.9605 2.28531L12.4462 1.53978C12.7229 1.40113 13.0284 1.32905 13.3378 1.32905H21.6794C22.9118 1.32548 24.0946 1.81643 24.9635 2.69217L27.5844 5.31905H22.1093L20.4989 3.70525L19.561 4.64528L24.2479 9.34314C24.7685 9.86267 24.7701 10.7069 24.2517 11.229C23.7331 11.7508 22.8907 11.7525 22.3701 11.2329L18.4556 7.3095L17.991 7.70857C16.7084 8.80023 14.8336 8.82816 13.5189 7.77481L13.1344 7.46244L12.2982 8.49566L12.687 8.8116C13.0935 9.13728 13.55 9.39509 14.0386 9.57498V12.7883C12.9526 12.7399 11.9 12.396 10.9945 11.7934ZM20.4328 11.1709L21.4338 12.1746C22.4731 13.2007 24.1416 13.2023 25.1825 12.1778C24.2087 13.6893 24.5929 15.7009 26.055 16.7448C27.517 17.7888 29.5396 17.4956 30.6466 16.0795C31.7536 14.6631 31.5537 12.6246 30.1924 11.4518C28.8314 10.2789 26.7904 10.3864 25.5596 11.6956C26.0128 10.9823 26.0938 10.0932 25.777 9.30905H34.6619C34.9473 10.9823 36.2549 12.2928 37.9243 12.5788V15.3492C36.2549 15.6353 34.9473 16.9458 34.6619 18.619H21.2819C20.9965 16.9458 19.6889 15.6353 18.0195 15.3492V12.5788C18.9678 12.4188 19.8253 11.9184 20.4328 11.1709ZM25.9814 13.964C25.9814 12.8623 26.8727 11.969 27.9719 11.969C29.0711 11.969 29.9624 12.8623 29.9624 13.964C29.9624 15.0658 29.0711 15.959 27.9719 15.959C26.8727 15.959 25.9814 15.0658 25.9814 13.964ZM40.5782 21.279H15.3655V9.85358C16.4175 9.93281 17.4662 9.66395 18.3513 9.0889L19.4832 10.2234C18.9853 10.9014 18.1961 11.3024 17.356 11.304H16.6925V16.624H17.356C18.8217 16.624 20.01 17.8151 20.01 19.284V19.949H35.9338V19.284C35.9338 17.8151 37.1221 16.624 38.5878 16.624H39.2513V11.304H38.5878C37.1221 11.304 35.9338 10.113 35.9338 8.64405V7.97905H24.7633L23.4363 6.64905H40.5782V21.279Z" fill="#F76041"/>
</g>
<defs>
<clipPath id="clip0">
<rect width="44" height="42" fill="white"/>
</clipPath>
</defs>
</svg>
