<svg width="50" height="50" viewBox="0 0 50 50" fill="none" xmlns="http://www.w3.org/2000/svg">
<path d="M37.3047 34.375C37.3047 32.7596 35.9904 31.4453 34.375 31.4453C32.7596 31.4453 31.4453 32.7596 31.4453 34.375C31.4453 35.9904 32.7596 37.3047 34.375 37.3047C35.9904 37.3047 37.3047 35.9904 37.3047 34.375ZM33.3984 34.375C33.3984 33.8365 33.8365 33.3984 34.375 33.3984C34.9135 33.3984 35.3516 33.8365 35.3516 34.375C35.3516 34.9135 34.9135 35.3516 34.375 35.3516C33.8365 35.3516 33.3984 34.9135 33.3984 34.375Z" fill="#F76041"/>
<path d="M42.1875 39.2578C40.5721 39.2578 39.2578 40.5721 39.2578 42.1875C39.2578 43.8029 40.5721 45.1172 42.1875 45.1172C43.8029 45.1172 45.1172 43.8029 45.1172 42.1875C45.1172 40.5721 43.8029 39.2578 42.1875 39.2578ZM42.1875 43.1641C41.649 43.1641 41.2109 42.726 41.2109 42.1875C41.2109 41.649 41.649 41.2109 42.1875 41.2109C42.726 41.2109 43.1641 41.649 43.1641 42.1875C43.1641 42.726 42.726 43.1641 42.1875 43.1641Z" fill="#F76041"/>
<path d="M42.1526 31.5763C41.6853 31.3066 41.0882 31.4667 40.8186 31.9337L34.0529 43.6525C33.7832 44.1195 33.9432 44.7167 34.4103 44.9864C34.5641 45.0752 34.732 45.1175 34.8976 45.1175C35.2351 45.1175 35.5635 44.9423 35.7443 44.629L42.51 32.9103C42.7797 32.4432 42.6197 31.846 42.1526 31.5763Z" fill="#F76041"/>
<path d="M42.651 27.4083V23.4374H43.9451C44.4844 23.4374 44.9217 23.0001 44.9217 22.4608V16.6015C44.9217 16.4959 44.9046 16.391 44.871 16.291L39.6308 0.666013C39.4973 0.268163 39.1246 0 38.7049 0H6.21687C5.79714 0 5.42449 0.268163 5.29099 0.666013L0.0506834 16.291C0.0170898 16.391 0 16.4959 0 16.6015V22.4608C0 23.0001 0.437303 23.4374 0.976559 23.4374H2.27079V40.0389C2.27079 40.5782 2.70809 41.0155 3.24735 41.0155H26.8854C28.1204 46.1626 32.7608 50 38.2813 50C44.743 50 50 44.743 50 38.2813C50 33.3634 46.9546 29.1441 42.651 27.4083ZM28.284 21.4843V17.5781H42.9686V21.4843H28.284ZM18.5909 23.4374H26.3309V27.2165C26.3309 27.3979 26.271 27.4791 26.25 27.4933C26.2441 27.4969 26.2174 27.4952 26.1782 27.4793L22.8285 26.1182C22.5928 26.0225 22.329 26.0225 22.0933 26.1182L18.7437 27.4793C18.7045 27.4952 18.6776 27.497 18.6719 27.4933C18.6509 27.4791 18.591 27.3979 18.591 27.2165V23.4374H18.5909ZM18.5909 21.4843V17.5781H26.3309V21.4843H18.5909ZM25.2199 1.95312L26.2542 15.6249H18.6676L19.702 1.95312H25.2199ZM42.5876 15.6249H28.2129L27.1786 1.95312H38.0025L42.5876 15.6249ZM6.91931 1.95312H17.7432L16.7089 15.6249H2.33407L6.91931 1.95312ZM1.95312 21.4843V17.5781H16.6378V21.4843H1.95312ZM4.22391 39.0623V37.1091H8.61803C9.15729 37.1091 9.59459 36.6718 9.59459 36.1326C9.59459 35.5933 9.15729 35.156 8.61803 35.156H4.22391V23.4374H16.6378V27.2165C16.6378 28.0185 16.9817 28.7099 17.5812 29.1136C18.1384 29.4886 18.8301 29.5524 19.4789 29.2888L22.4608 28.0771L25.4429 29.2888C25.7067 29.3961 25.9776 29.4491 26.2436 29.4491C26.6319 29.4491 27.01 29.3361 27.3405 29.1136C27.9401 28.7099 28.2839 28.0185 28.2839 27.2165V23.4374H40.6978V26.8138C39.9176 26.6496 39.1094 26.5626 38.2812 26.5626C31.8195 26.5626 26.5625 31.8196 26.5625 38.2813C26.5625 38.5438 26.5721 38.804 26.5892 39.0623H4.22391ZM38.2813 48.0469C32.8965 48.0469 28.5157 43.6661 28.5157 38.2813C28.5157 32.8965 32.8965 28.5157 38.2813 28.5157C43.6661 28.5157 48.0469 32.8965 48.0469 38.2813C48.0469 43.6661 43.6661 48.0469 38.2813 48.0469Z" fill="#F76041"/>
<path d="M13.0122 35.156C12.4729 35.156 12.0356 35.5933 12.0356 36.1326C12.0356 36.6718 12.4729 37.1091 13.0122 37.1091H13.013C13.5522 37.1091 13.9892 36.6718 13.9892 36.1326C13.9892 35.5933 13.5516 35.156 13.0122 35.156Z" fill="#F76041"/>
</svg>
