<svg width="44" height="42" viewBox="0 0 44 42" fill="none" xmlns="http://www.w3.org/2000/svg">
<path d="M21.4993 23.3989C21.4218 23.3825 21.3423 23.3795 21.2637 23.391C20.4767 23.3015 19.883 22.6507 19.8816 21.8767C19.8816 21.5058 19.5739 21.205 19.1943 21.205C18.8147 21.205 18.5069 21.5058 18.5069 21.8767C18.5089 23.1693 19.3936 24.3015 20.669 24.6435V25.3152C20.669 25.6862 20.9768 25.9869 21.3564 25.9869C21.736 25.9869 22.0437 25.6862 22.0437 25.3152V24.6842C23.5158 24.3831 24.5163 23.0433 24.3615 21.5815C24.2065 20.1197 22.9462 19.0089 21.4423 19.0085C20.5804 19.0085 19.8816 18.3257 19.8816 17.4834C19.8816 16.6412 20.5804 15.9584 21.4423 15.9584C22.3042 15.9584 23.0029 16.6412 23.0029 17.4834C23.0029 17.8544 23.3107 18.1551 23.6903 18.1551C24.0699 18.1551 24.3777 17.8544 24.3777 17.4834C24.3756 16.1263 23.4027 14.9557 22.0437 14.6756V14.0643C22.0437 13.6933 21.736 13.3926 21.3564 13.3926C20.9768 13.3926 20.669 13.6933 20.669 14.0643V14.7166C19.2507 15.0951 18.3378 16.4408 18.5331 17.8649C18.7284 19.289 19.9719 20.3519 21.4423 20.3516C22.2928 20.3516 22.9865 21.0171 23.0019 21.8479C23.0177 22.6786 22.3491 23.3687 21.4993 23.3989Z" fill="#F76041"/>
<path d="M11.4746 19.7315C11.4746 25.111 15.9371 29.4718 21.442 29.4718C26.9469 29.4718 31.4094 25.111 31.4094 19.7315C31.4094 14.352 26.9469 9.99121 21.442 9.99121C15.9398 9.99711 11.481 14.3546 11.4746 19.7315ZM21.442 11.3346C26.1877 11.3346 30.0346 15.0939 30.0346 19.7315C30.0346 24.3691 26.1877 28.1284 21.442 28.1284C16.6963 28.1284 12.8493 24.3691 12.8493 19.7315C12.8547 15.0962 16.6986 11.3399 21.442 11.3346Z" fill="#F76041"/>
<path d="M34.7984 31.1274L29.414 33.6135C28.6706 32.2622 27.2445 31.4022 25.6751 31.359L20.7045 31.2255C19.9175 31.2035 19.1452 31.0087 18.4455 30.6554L17.9397 30.3993C15.35 29.0802 12.2633 29.0834 9.67626 30.4078L9.70781 29.2881C9.71821 28.9172 9.41917 28.6082 9.03958 28.598L3.58904 28.4514C3.20945 28.4413 2.89363 28.7335 2.88322 29.1044L2.55397 40.7929C2.54357 41.1638 2.84261 41.4728 3.2222 41.483L8.67274 41.6296H8.69154C9.06408 41.6296 9.36883 41.34 9.3789 40.9762L9.39467 40.417L10.8107 39.6761C11.3665 39.3839 12.0162 39.3144 12.6234 39.4823L21.0791 41.8014C21.0939 41.8057 21.1086 41.809 21.1237 41.8123C21.7349 41.9372 22.3578 41.9999 22.9821 41.9995C24.3044 42.0002 25.6114 41.7217 26.8132 41.1825C26.8428 41.1694 26.8713 41.154 26.8985 41.1366L39.1585 33.3872C39.4639 33.194 39.5626 32.8021 39.3837 32.4924C38.4735 30.9142 36.4547 30.313 34.7984 31.1274ZM3.94715 40.1586L4.23847 29.8129L8.31463 29.9224L8.02331 40.2685L3.94715 40.1586ZM26.194 39.9828C24.7008 40.6414 23.0331 40.8231 21.4281 40.5026L12.9952 38.1894C12.0461 37.9274 11.0302 38.0359 10.1619 38.4921L9.4383 38.871L9.63196 31.9923C11.9249 30.5019 14.8657 30.3488 17.3077 31.5921L17.8135 31.8483C18.6975 32.2943 19.6725 32.5403 20.667 32.5685L25.6379 32.702C27.0341 32.7414 28.2198 33.7128 28.5031 35.0497L21.0989 34.8499C20.7193 34.8398 20.4035 35.1323 20.3927 35.5029C20.3823 35.8739 20.6817 36.1828 21.061 36.193L29.2321 36.4128H29.2512C29.6234 36.4124 29.9278 36.1228 29.9379 35.7594C29.9463 35.4675 29.9241 35.1753 29.8714 34.888L35.3941 32.338C35.3995 32.3357 35.4049 32.333 35.4103 32.3304C36.1936 31.9431 37.1407 32.0726 37.7851 32.6554L26.194 39.9828Z" fill="#F76041"/>
<path d="M22.1296 8.10263V1.7215C22.1296 1.35056 21.8218 1.0498 21.4422 1.0498C21.0627 1.0498 20.7549 1.35056 20.7549 1.7215V8.10263C20.7549 8.47358 21.0627 8.77433 21.4422 8.77433C21.8218 8.77433 22.1296 8.47358 22.1296 8.10263Z" fill="#F76041"/>
<path d="M27.2849 8.10254V5.0799C27.2849 4.70896 26.9771 4.4082 26.5975 4.4082C26.2179 4.4082 25.9102 4.70896 25.9102 5.0799V8.10254C25.9102 8.47349 26.2179 8.77424 26.5975 8.77424C26.9771 8.77424 27.2849 8.47349 27.2849 8.10254Z" fill="#F76041"/>
<path d="M16.9743 8.10254V5.0799C16.9743 4.70896 16.6666 4.4082 16.287 4.4082C15.9074 4.4082 15.5996 4.70896 15.5996 5.0799V8.10254C15.5996 8.47349 15.9074 8.77424 16.287 8.77424C16.6666 8.77424 16.9743 8.47349 16.9743 8.10254Z" fill="#F76041"/>
</svg>
