<svg width="44" height="42" viewBox="0 0 44 42" fill="none" xmlns="http://www.w3.org/2000/svg">
<g clip-path="url(#clip0)">
<path d="M43.7571 29.1917L41.7548 27.2057C41.4329 26.8866 40.9135 26.8888 40.5944 27.2105C40.2752 27.5322 40.2774 28.0517 40.5992 28.3708L42.6014 30.3568C42.7614 30.5155 42.9703 30.5948 43.1792 30.5948C43.3902 30.5948 43.6013 30.5138 43.7617 30.3521C44.0809 30.0303 44.0788 29.5108 43.7571 29.1917Z" fill="#F76041"/>
<path d="M39.7151 25.1739C39.3947 24.8535 38.8754 24.8535 38.5548 25.1739L38.5534 25.1753C38.233 25.4957 38.2337 26.0146 38.5542 26.335C38.7141 26.495 38.924 26.575 39.1339 26.575C39.3442 26.575 39.5547 26.4947 39.715 26.3343C40.0355 26.0139 40.0355 25.4944 39.7151 25.1739Z" fill="#F76041"/>
<path d="M32.7202 28.9572L40.6795 20.998C41.8849 19.7924 41.8849 17.8309 40.6794 16.6254C40.2543 16.2003 39.7352 15.9258 39.1883 15.8006C39.3759 15.3975 39.4751 14.9551 39.4751 14.4972C39.4751 13.6714 39.1535 12.8949 38.5696 12.311C38.1116 11.853 37.535 11.5572 36.9092 11.4506C37.2615 10.3771 37.0125 9.14774 36.1604 8.29576C35.6919 7.82736 35.1092 7.5419 34.5012 7.43755C34.603 7.12838 34.6568 6.80189 34.6568 6.46688C34.6568 5.64099 34.3351 4.86456 33.7512 4.28066C33.1672 3.69676 32.3908 3.37512 31.565 3.37512C31.0406 3.37512 30.5363 3.50522 30.0884 3.74951L30.0092 3.66444C28.9804 2.55882 27.5241 1.9248 26.014 1.9248H19.5712C19.1182 1.9248 18.7507 2.29222 18.7507 2.74528V3.8212C18.7507 4.25179 18.8236 4.67097 18.9629 5.06513C18.5918 4.91099 18.1902 4.83002 17.7763 4.83002C16.9504 4.83002 16.174 5.15167 15.59 5.73557C14.7375 6.58804 14.4887 7.81834 14.8419 8.89213C14.2333 8.99623 13.6498 9.28186 13.1809 9.75067C12.597 10.3347 12.2754 11.1111 12.2754 11.9369C12.2754 12.2712 12.3289 12.5972 12.4304 12.9058C11.8053 13.0126 11.2293 13.3083 10.7717 13.7659C9.83025 14.7074 9.62411 16.1101 10.1533 17.2536C9.59294 17.3816 9.07827 17.6638 8.66172 18.0803C7.45627 19.2857 7.45627 21.2473 8.66172 22.4528L10.2986 24.0896L2.24031 32.1477C1.9199 32.4681 1.9199 32.9876 2.24031 33.3081C2.40052 33.4682 2.61052 33.5484 2.82044 33.5484C3.03035 33.5484 3.24035 33.4683 3.40056 33.3081L11.5366 25.1721C11.9972 25.4349 12.5199 25.5755 13.0647 25.5755C13.8905 25.5755 14.6669 25.2538 15.2509 24.6699C15.8853 24.0355 16.1854 23.1917 16.152 22.3589C16.1936 22.3606 16.2352 22.3618 16.2768 22.3618C17.0684 22.3617 17.8604 22.0604 18.463 21.4578C19.0469 20.8738 19.3685 20.0974 19.3685 19.2715C19.3685 19.2298 19.3671 19.1883 19.3655 19.1468C19.4066 19.1484 19.4477 19.1497 19.4889 19.1497C20.2805 19.1497 21.0724 18.8483 21.6751 18.2457C22.259 17.6617 22.5806 16.8853 22.5806 16.0594C22.5806 16.0177 22.5792 15.9762 22.5776 15.9347C22.6187 15.9363 22.6598 15.9376 22.701 15.9376C23.4927 15.9376 24.2845 15.6362 24.8872 15.0336C26.0199 13.9009 26.088 12.1009 25.0922 10.8875L30.5386 5.44116C30.8127 5.16701 31.1769 5.01615 31.5645 5.01615C31.9521 5.01615 32.3164 5.16701 32.5905 5.44116C32.8645 5.71522 33.0154 6.07944 33.0154 6.46704C33.0154 6.85456 32.8645 7.21894 32.5904 7.49292L31.7874 8.29593L28.8738 11.2095C28.5534 11.5299 28.5534 12.0494 28.8738 12.3699C29.034 12.5301 29.244 12.6103 29.4539 12.6103C29.6638 12.6103 29.8738 12.5301 30.0341 12.3699L32.9476 9.45634C33.5132 8.89065 34.4337 8.89057 34.9995 9.45626C35.5652 10.022 35.5652 10.9424 34.9995 11.5082L34.1964 12.3113L32.0859 14.4218C31.7655 14.7422 31.7655 15.2617 32.0859 15.5822C32.2461 15.7423 32.4561 15.8225 32.666 15.8225C32.8759 15.8225 33.0859 15.7424 33.2462 15.5822L35.3567 13.4717C35.6307 13.1975 35.995 13.0467 36.3825 13.0467C36.7701 13.0467 37.1344 13.1975 37.4085 13.4717C37.6826 13.7458 37.8334 14.11 37.8334 14.4976C37.8334 14.8851 37.6826 15.2495 37.4084 15.5235L36.3062 16.6257L35.2979 17.634C34.9775 17.9544 34.9775 18.4739 35.2979 18.7944C35.4581 18.9545 35.6681 19.0347 35.878 19.0347C36.088 19.0347 36.298 18.9546 36.4582 18.7944L37.4672 17.7854C38.0329 17.2206 38.9528 17.2207 39.5183 17.7861C40.084 18.3518 40.084 19.2723 39.5183 19.8381L31.5589 27.7973C29.5603 29.796 26.9041 30.953 24.0795 31.0556C23.8719 31.0631 23.6747 31.1492 23.528 31.2965L16.1754 38.6764C15.8555 38.9974 15.8564 39.5169 16.1775 39.8367C16.3375 39.9962 16.5471 40.076 16.7566 40.076C16.967 40.076 17.1775 39.9955 17.3378 39.8346L22.7458 34.4066C24.1195 35.2878 25.735 35.7068 27.3777 35.5982L31.6104 39.831C31.7706 39.9911 31.9806 40.0713 32.1905 40.0713C32.4005 40.0713 32.6104 39.9912 32.7706 39.831C33.091 39.5105 33.091 38.991 32.7706 38.6705L28.2704 34.1698C28.1 33.9995 27.8633 33.9125 27.6232 33.9322L27.363 33.9535C26.1623 34.0519 24.9755 33.7889 23.9393 33.2083L24.4666 32.6791C27.5851 32.4867 30.5048 31.1727 32.7202 28.9572ZM14.0906 23.5096C13.8166 23.7838 13.4522 23.9346 13.0647 23.9346C12.6771 23.9346 12.3128 23.7838 12.0389 23.5096L9.82188 21.2927C9.2562 20.727 9.2562 19.8066 9.82188 19.2408C10.096 18.9666 10.4603 18.8158 10.8478 18.8158C11.2354 18.8158 11.5997 18.9666 11.8737 19.2408L14.0907 21.4577C14.6563 22.0234 14.6563 22.9438 14.0906 23.5096ZM17.3029 20.2973C16.7371 20.863 15.8165 20.863 15.251 20.2973L13.034 18.0804L11.9316 16.978C11.366 16.4123 11.366 15.4919 11.9316 14.9262C12.2057 14.652 12.5701 14.5012 12.9575 14.5012C13.3451 14.5012 13.7094 14.652 13.9834 14.9262L17.3026 18.2454C17.3026 18.2454 17.3026 18.2454 17.3027 18.2454C17.5769 18.5196 17.7277 18.8839 17.7277 19.2714C17.7277 19.6589 17.5769 20.0233 17.3029 20.2973ZM20.515 17.0852C19.9492 17.6508 19.0287 17.6509 18.4631 17.0852L14.3407 12.9628C14.0667 12.6888 13.9158 12.3246 13.9158 11.937C13.9158 11.5495 14.0667 11.1851 14.3408 10.9111C14.6237 10.6282 14.9953 10.4868 15.3667 10.4868C15.738 10.4868 16.1092 10.6281 16.3919 10.9104L18.2708 12.7893L20.5148 15.0333H20.5149C20.7889 15.3074 20.9397 15.6716 20.9397 16.0592C20.9399 16.4468 20.7891 16.8112 20.515 17.0852ZM23.7272 13.873C23.1615 14.4387 22.241 14.4387 21.6753 13.873L17.553 9.75067C17.5526 9.75026 17.5521 9.74985 17.5516 9.74936L16.7499 8.94767C16.1842 8.3819 16.1842 7.46151 16.7499 6.89574C17.0328 6.61281 17.4044 6.47139 17.7759 6.47139C18.1474 6.47139 18.519 6.61281 18.8018 6.89574L23.727 11.821C24.0012 12.095 24.152 12.4593 24.152 12.8469C24.1521 13.2345 24.0013 13.599 23.7272 13.873ZM23.9429 9.7163L21.6893 7.46274C21.9449 7.51729 22.2076 7.54624 22.475 7.54616C22.481 7.54616 22.4871 7.54616 22.4932 7.54616L24.7448 7.53558C25.1978 7.53345 25.5635 7.16439 25.5614 6.71125C25.5593 6.25942 25.1923 5.89463 24.741 5.89463C24.7397 5.89463 24.7384 5.89463 24.7371 5.89463L22.4855 5.90521C22.482 5.90521 22.4787 5.90521 22.4753 5.90521C21.9205 5.90521 21.3987 5.68988 21.0053 5.29834C20.6094 4.90426 20.3914 4.37975 20.3914 3.82112V3.56568H26.0137C27.0699 3.56568 28.0883 4.00906 28.8079 4.78228L28.8412 4.81813L23.9429 9.7163Z" fill="#F76041"/>
</g>
<defs>
<clipPath id="clip0">
<rect width="44" height="42" fill="white"/>
</clipPath>
</defs>
</svg>
