<svg width="44" height="42" viewBox="0 0 44 42" fill="none" xmlns="http://www.w3.org/2000/svg">
<path d="M33.9328 15.0938V13.7812C35.0429 13.7812 35.9462 12.8979 35.9462 11.8125C35.9462 10.7271 35.0429 9.84375 33.9328 9.84375H32.5905C32.2201 9.84375 31.9194 9.54975 31.9194 9.1875C31.9194 8.82525 32.2201 8.53125 32.5905 8.53125H34.6039V9.1875H35.9462V7.21875H33.9328V5.90625H32.5905V7.21875C31.4805 7.21875 30.5771 8.10206 30.5771 9.1875C30.5771 10.2729 31.4805 11.1562 32.5905 11.1562H33.9328C34.3033 11.1562 34.6039 11.4503 34.6039 11.8125C34.6039 12.1747 34.3033 12.4688 33.9328 12.4688H31.9194V11.8125H30.5771V13.7812H32.5905V15.0938H33.9328Z" fill="#F76041"/>
<path d="M40.6448 10.5C40.6448 6.51984 37.3327 3.28125 33.2623 3.28125C29.1919 3.28125 25.8799 6.51984 25.8799 10.5C25.8799 14.4802 29.1919 17.7188 33.2623 17.7188C37.3327 17.7188 40.6448 14.4802 40.6448 10.5ZM27.2221 10.5C27.2221 7.24303 29.9315 4.59375 33.2623 4.59375C36.5931 4.59375 39.3025 7.24303 39.3025 10.5C39.3025 13.757 36.5931 16.4062 33.2623 16.4062C29.9315 16.4062 27.2221 13.757 27.2221 10.5Z" fill="#F76041"/>
<path d="M43.3289 10.5C43.3289 5.07216 38.8128 0.65625 33.2619 0.65625C27.711 0.65625 23.1949 5.07216 23.1949 10.5C23.1949 14.679 25.8761 18.249 29.6418 19.6744L28.2861 21H22.8902L18.1923 26.25H10.1502L1.89727 34.9919L2.88316 35.8824L10.7374 27.5625H18.8024L23.5003 22.3125H28.8425L31.0968 20.1082C31.7116 20.2407 32.3472 20.3142 32.9981 20.3306L29.6284 23.625H23.5305L19.5037 28.875H11.481L1.71875 39.7845V41.3438H40.6443V17.1701C42.3047 15.414 43.3289 13.0745 43.3289 10.5ZM24.5372 10.5C24.5372 5.796 28.4512 1.96875 33.2619 1.96875C38.0726 1.96875 41.9866 5.796 41.9866 10.5C41.9866 15.204 38.0726 19.0312 33.2619 19.0312C28.4512 19.0312 24.5372 15.204 24.5372 10.5ZM35.2753 20.1456V40.0312H32.5908V22.5842L35.0505 20.179C35.125 20.1659 35.2015 20.16 35.2753 20.1456ZM30.1841 24.9375L31.2485 23.8967V40.0312H28.564V24.9375H30.1841ZM11.1146 40.0312H8.43006V34.2779L11.1146 31.2782V40.0312ZM12.4568 30.1875H15.1414V40.0312H12.4568V30.1875ZM16.4836 30.1875H19.1682V40.0312H16.4836V30.1875ZM20.5104 29.7498L23.1949 26.25V40.0312H20.5104V29.7498ZM24.5372 24.9375H27.2217V40.0312H24.5372V24.9375ZM7.0878 35.7781V40.0312H3.28181L7.0878 35.7781ZM36.6176 40.0312V19.7695C37.59 19.4316 38.4927 18.9532 39.3021 18.3566V40.0312H36.6176Z" fill="#F76041"/>
<path d="M5.74558 24.9375H7.08784V22.3125H8.43011V14.4375H7.08784V11.8125H5.74558V14.4375H4.40332V22.3125H5.74558V24.9375ZM5.74558 15.75H7.08784V21H5.74558V15.75Z" fill="#F76041"/>
<path d="M11.1147 21.6562H12.457V19.0312H13.7992V12.4688H12.457V9.84375H11.1147V12.4688H9.77246V19.0312H11.1147V21.6562ZM11.1147 13.7812H12.457V17.7188H11.1147V13.7812Z" fill="#F76041"/>
<path d="M16.4839 17.0625H17.8261V14.4375H19.1684V9.1875H17.8261V6.5625H16.4839V9.1875H15.1416V14.4375H16.4839V17.0625ZM16.4839 10.5H17.8261V13.125H16.4839V10.5Z" fill="#F76041"/>
</svg>
