<svg width="50" height="50" viewBox="0 0 50 50" fill="none" xmlns="http://www.w3.org/2000/svg">
<path d="M22.5807 25.5H29.0323H30.1452V31.4516C30.1452 31.6214 30.0086 31.7581 29.8387 31.7581H21.7742C21.6044 31.7581 21.4678 31.6214 21.4678 31.4516V25.5H22.5807Z" stroke="#F76041"/>
<path d="M5.64494 8.06454C6.97881 8.06454 8.0643 6.97906 8.0643 5.64518C8.0643 4.31131 6.97881 3.22583 5.64494 3.22583C4.31107 3.22583 3.22559 4.31131 3.22559 5.64518C3.22559 6.97906 4.31107 8.06454 5.64494 8.06454ZM5.64494 4.83873C6.0893 4.83873 6.45139 5.20002 6.45139 5.64518C6.45139 6.09035 6.0893 6.45164 5.64494 6.45164C5.20059 6.45164 4.83849 6.09035 4.83849 5.64518C4.83849 5.20002 5.20059 4.83873 5.64494 4.83873Z" fill="#F76041"/>
<path d="M46.7742 24.1935V8.5371L38.2371 0H5.64516C2.53226 0 0 2.53306 0 5.64516V37.9032C0 41.0153 2.53226 43.5484 5.64516 43.5484C8.75806 43.5484 11.2903 41.0153 11.2903 37.9032V35.4839H12.9032V50H50V24.1935H46.7742ZM38.7097 2.75323L44.021 8.06452H38.7097V2.75323ZM5.64516 1.6129C7.86855 1.6129 9.67742 3.42177 9.67742 5.64516C9.67742 7.86855 7.86855 9.67742 5.64516 9.67742C3.42177 9.67742 1.6129 7.86855 1.6129 5.64516C1.6129 3.42177 3.42177 1.6129 5.64516 1.6129ZM5.64516 41.9355C3.42177 41.9355 1.6129 40.1266 1.6129 37.9032V9.5879C2.63871 10.6371 4.06613 11.2903 5.64516 11.2903C7.22419 11.2903 8.65161 10.6371 9.67742 9.5879V37.9032C9.67742 40.1266 7.86855 41.9355 5.64516 41.9355ZM11.2903 33.871V5.64516C11.2903 4.06613 10.6371 2.63871 9.5879 1.6129H37.0968V9.67742H45.1613V24.1935H12.9032V33.871H11.2903ZM14.5161 25.8065H37.0968V48.3871H14.5161V25.8065ZM48.3871 48.3871H38.7097V25.8065H48.3871V48.3871Z" fill="#F76041"/>
<path d="M35.4837 41.9354H28.2256V43.5483H35.4837V41.9354Z" fill="#F76041"/>
<path d="M35.4837 45.1613H28.2256V46.7742H35.4837V45.1613Z" fill="#F76041"/>
</svg>
